solid OpenSCAD_Model
  facet normal 0.999123 0.0418781 0
    outer loop
      vertex 3.5 0 15
      vertex 3.48772 0.292872 0
      vertex 3.48772 0.292872 15
    endloop
  endfacet
  facet normal 0.999123 0.0418781 0
    outer loop
      vertex 3.48772 0.292872 0
      vertex 3.5 0 15
      vertex 3.5 0 0
    endloop
  endfacet
  facet normal -1 0 0
    outer loop
      vertex -3.49693 -0.146564 0
      vertex -3.49693 0.146564 15
      vertex -3.49693 0.146564 0
    endloop
  endfacet
  facet normal -1 -0 0
    outer loop
      vertex -3.49693 0.146564 15
      vertex -3.49693 -0.146564 0
      vertex -3.49693 -0.146564 15
    endloop
  endfacet
  facet normal 0.0209423 0.999781 -0
    outer loop
      vertex 0.219767 3.49309 0
      vertex -0.0732985 3.49923 15
      vertex 0.219767 3.49309 15
    endloop
  endfacet
  facet normal 0.0209423 0.999781 0
    outer loop
      vertex -0.0732985 3.49923 15
      vertex 0.219767 3.49309 0
      vertex -0.0732985 3.49923 0
    endloop
  endfacet
  facet normal 0.0209423 -0.999781 0
    outer loop
      vertex -0.0732985 -3.49923 0
      vertex 0.219767 -3.49309 15
      vertex -0.0732985 -3.49923 15
    endloop
  endfacet
  facet normal 0.0209423 -0.999781 0
    outer loop
      vertex 0.219767 -3.49309 15
      vertex -0.0732985 -3.49923 0
      vertex 0.219767 -3.49309 0
    endloop
  endfacet
  facet normal -0.728969 -0.684547 0
    outer loop
      vertex -2.44882 -2.50065 0
      vertex -2.64948 -2.28697 15
      vertex -2.64948 -2.28697 0
    endloop
  endfacet
  facet normal -0.728969 -0.684547 0
    outer loop
      vertex -2.64948 -2.28697 15
      vertex -2.44882 -2.50065 0
      vertex -2.44882 -2.50065 15
    endloop
  endfacet
  facet normal 0.699665 0.714471 -0
    outer loop
      vertex 2.55139 2.39591 0
      vertex 2.34196 2.60101 15
      vertex 2.55139 2.39591 15
    endloop
  endfacet
  facet normal 0.699665 0.714471 0
    outer loop
      vertex 2.34196 2.60101 15
      vertex 2.55139 2.39591 0
      vertex 2.34196 2.60101 0
    endloop
  endfacet
  facet normal -0.66913 0.743145 0
    outer loop
      vertex -2.23098 2.6968 0
      vertex -2.44882 2.50065 15
      vertex -2.23098 2.6968 15
    endloop
  endfacet
  facet normal -0.66913 0.743145 0
    outer loop
      vertex -2.44882 2.50065 15
      vertex -2.23098 2.6968 0
      vertex -2.44882 2.50065 0
    endloop
  endfacet
  facet normal -0.387515 0.921863 0
    outer loop
      vertex -1.22 3.28049 0
      vertex -1.49023 3.16689 15
      vertex -1.22 3.28049 15
    endloop
  endfacet
  facet normal -0.387515 0.921863 0
    outer loop
      vertex -1.49023 3.16689 15
      vertex -1.22 3.28049 0
      vertex -1.49023 3.16689 0
    endloop
  endfacet
  facet normal 0.929776 0.368125 0
    outer loop
      vertex 3.30532 1.15103 15
      vertex 3.19741 1.42358 0
      vertex 3.19741 1.42358 15
    endloop
  endfacet
  facet normal 0.929776 0.368125 0
    outer loop
      vertex 3.19741 1.42358 0
      vertex 3.30532 1.15103 15
      vertex 3.30532 1.15103 0
    endloop
  endfacet
  facet normal 0.756994 0.653421 0
    outer loop
      vertex 2.74293 2.17402 15
      vertex 2.55139 2.39591 0
      vertex 2.55139 2.39591 15
    endloop
  endfacet
  facet normal 0.756994 0.653421 0
    outer loop
      vertex 2.55139 2.39591 0
      vertex 2.74293 2.17402 15
      vertex 2.74293 2.17402 0
    endloop
  endfacet
  facet normal 0.425779 0.904827 -0
    outer loop
      vertex 1.62154 3.10171 0
      vertex 1.3563 3.22652 15
      vertex 1.62154 3.10171 15
    endloop
  endfacet
  facet normal 0.425779 0.904827 0
    outer loop
      vertex 1.3563 3.22652 15
      vertex 1.62154 3.10171 0
      vertex 1.3563 3.22652 0
    endloop
  endfacet
  facet normal -0.832922 0.553391 0
    outer loop
      vertex -2.99377 1.81309 0
      vertex -2.83156 2.05725 15
      vertex -2.83156 2.05725 0
    endloop
  endfacet
  facet normal -0.832922 0.553391 0
    outer loop
      vertex -2.83156 2.05725 15
      vertex -2.99377 1.81309 0
      vertex -2.99377 1.81309 15
    endloop
  endfacet
  facet normal -0.783693 0.621149 0
    outer loop
      vertex -2.83156 2.05725 0
      vertex -2.64948 2.28697 15
      vertex -2.64948 2.28697 0
    endloop
  endfacet
  facet normal -0.783693 0.621149 0
    outer loop
      vertex -2.64948 2.28697 15
      vertex -2.83156 2.05725 0
      vertex -2.83156 2.05725 15
    endloop
  endfacet
  facet normal -0.146085 0.989272 0
    outer loop
      vertex -0.365849 3.48083 0
      vertex -0.655834 3.438 15
      vertex -0.365849 3.48083 15
    endloop
  endfacet
  facet normal -0.146085 0.989272 0
    outer loop
      vertex -0.655834 3.438 15
      vertex -0.365849 3.48083 0
      vertex -0.655834 3.438 0
    endloop
  endfacet
  facet normal 0.895712 -0.444635 0
    outer loop
      vertex 3.06707 -1.68614 15
      vertex 3.19741 -1.42358 0
      vertex 3.19741 -1.42358 15
    endloop
  endfacet
  facet normal 0.895712 -0.444635 0
    outer loop
      vertex 3.19741 -1.42358 0
      vertex 3.06707 -1.68614 15
      vertex 3.06707 -1.68614 0
    endloop
  endfacet
  facet normal 0.268921 -0.963162 0
    outer loop
      vertex 0.799228 -3.40753 0
      vertex 1.08156 -3.3287 15
      vertex 0.799228 -3.40753 15
    endloop
  endfacet
  facet normal 0.268921 -0.963162 0
    outer loop
      vertex 1.08156 -3.3287 15
      vertex 0.799228 -3.40753 0
      vertex 1.08156 -3.3287 0
    endloop
  endfacet
  facet normal 0.756994 -0.653421 0
    outer loop
      vertex 2.55139 -2.39591 15
      vertex 2.74293 -2.17402 0
      vertex 2.74293 -2.17402 15
    endloop
  endfacet
  facet normal 0.756994 -0.653421 0
    outer loop
      vertex 2.74293 -2.17402 0
      vertex 2.55139 -2.39591 15
      vertex 2.55139 -2.39591 0
    endloop
  endfacet
  facet normal 0.95732 -0.289031 0
    outer loop
      vertex 3.30532 -1.15103 15
      vertex 3.39004 -0.870414 0
      vertex 3.39004 -0.870414 15
    endloop
  endfacet
  facet normal 0.95732 -0.289031 0
    outer loop
      vertex 3.39004 -0.870414 0
      vertex 3.30532 -1.15103 15
      vertex 3.30532 -1.15103 0
    endloop
  endfacet
  facet normal -0.30902 -0.951055 0
    outer loop
      vertex -1.22 -3.28049 0
      vertex -0.941219 -3.37107 15
      vertex -1.22 -3.28049 15
    endloop
  endfacet
  facet normal -0.30902 -0.951055 -0
    outer loop
      vertex -0.941219 -3.37107 15
      vertex -1.22 -3.28049 0
      vertex -0.941219 -3.37107 0
    endloop
  endfacet
  facet normal -0.783693 -0.621149 0
    outer loop
      vertex -2.64948 -2.28697 0
      vertex -2.83156 -2.05725 15
      vertex -2.83156 -2.05725 0
    endloop
  endfacet
  facet normal -0.783693 -0.621149 0
    outer loop
      vertex -2.83156 -2.05725 15
      vertex -2.64948 -2.28697 0
      vertex -2.64948 -2.28697 15
    endloop
  endfacet
  facet normal 0 0 -1
    outer loop
      vertex 2.66 0 0
      vertex 3.5 0 0
      vertex 3.48772 -0.292872 0
    endloop
  endfacet
  facet normal 0 0 -1
    outer loop
      vertex 2.65067 -0.222583 0
      vertex 3.48772 -0.292872 0
      vertex 3.45099 -0.58369 0
    endloop
  endfacet
  facet normal 0 0 -1
    outer loop
      vertex 3.5 0 0
      vertex 2.66 0 0
      vertex 3.48772 0.292872 0
    endloop
  endfacet
  facet normal 0 0 -1
    outer loop
      vertex 2.62275 -0.443604 0
      vertex 3.45099 -0.58369 0
      vertex 3.39004 -0.870414 0
    endloop
  endfacet
  facet normal 0 0 -1
    outer loop
      vertex 2.65067 0.222583 0
      vertex 3.48772 0.292872 0
      vertex 2.66 0 0
    endloop
  endfacet
  facet normal 0 0 -1
    outer loop
      vertex 2.57643 -0.661514 0
      vertex 3.39004 -0.870414 0
      vertex 3.30532 -1.15103 0
    endloop
  endfacet
  facet normal -0 0 -1
    outer loop
      vertex 3.48772 0.292872 0
      vertex 2.65067 0.222583 0
      vertex 3.45099 0.58369 0
    endloop
  endfacet
  facet normal 0 0 -1
    outer loop
      vertex 2.51204 -0.874784 0
      vertex 3.30532 -1.15103 0
      vertex 3.19741 -1.42358 0
    endloop
  endfacet
  facet normal 0 0 -1
    outer loop
      vertex 2.62275 0.443604 0
      vertex 3.45099 0.58369 0
      vertex 2.65067 0.222583 0
    endloop
  endfacet
  facet normal 0 0 -1
    outer loop
      vertex 2.43003 -1.08192 0
      vertex 3.19741 -1.42358 0
      vertex 3.06707 -1.68614 0
    endloop
  endfacet
  facet normal -0 0 -1
    outer loop
      vertex 3.45099 0.58369 0
      vertex 2.62275 0.443604 0
      vertex 3.39004 0.870414 0
    endloop
  endfacet
  facet normal 0 0 -1
    outer loop
      vertex 2.33098 -1.28146 0
      vertex 3.06707 -1.68614 0
      vertex 2.91522 -1.93687 0
    endloop
  endfacet
  facet normal 0 0 -1
    outer loop
      vertex 2.57643 0.661514 0
      vertex 3.39004 0.870414 0
      vertex 2.62275 0.443604 0
    endloop
  endfacet
  facet normal 0 0 -1
    outer loop
      vertex 2.21557 -1.47202 0
      vertex 2.91522 -1.93687 0
      vertex 2.74293 -2.17402 0
    endloop
  endfacet
  facet normal -0 0 -1
    outer loop
      vertex 3.39004 0.870414 0
      vertex 2.57643 0.661514 0
      vertex 3.30532 1.15103 0
    endloop
  endfacet
  facet normal 0 0 -1
    outer loop
      vertex 2.51204 0.874784 0
      vertex 3.30532 1.15103 0
      vertex 2.57643 0.661514 0
    endloop
  endfacet
  facet normal 0 0 -1
    outer loop
      vertex 3.48772 -0.292872 0
      vertex 2.65067 -0.222583 0
      vertex 2.66 0 0
    endloop
  endfacet
  facet normal 0 0 -1
    outer loop
      vertex 3.45099 -0.58369 0
      vertex 2.62275 -0.443604 0
      vertex 2.65067 -0.222583 0
    endloop
  endfacet
  facet normal 0 0 -1
    outer loop
      vertex 3.39004 -0.870414 0
      vertex 2.57643 -0.661514 0
      vertex 2.62275 -0.443604 0
    endloop
  endfacet
  facet normal 0 0 -1
    outer loop
      vertex 2.08462 -1.65225 0
      vertex 2.74293 -2.17402 0
      vertex 2.55139 -2.39591 0
    endloop
  endfacet
  facet normal 0 0 -1
    outer loop
      vertex 3.30532 -1.15103 0
      vertex 2.51204 -0.874784 0
      vertex 2.57643 -0.661514 0
    endloop
  endfacet
  facet normal 0 0 -1
    outer loop
      vertex 3.19741 -1.42358 0
      vertex 2.43003 -1.08192 0
      vertex 2.51204 -0.874784 0
    endloop
  endfacet
  facet normal 0 0 -1
    outer loop
      vertex 1.93906 -1.8209 0
      vertex 2.55139 -2.39591 0
      vertex 2.34196 -2.60101 0
    endloop
  endfacet
  facet normal 0 0 -1
    outer loop
      vertex 3.06707 -1.68614 0
      vertex 2.33098 -1.28146 0
      vertex 2.43003 -1.08192 0
    endloop
  endfacet
  facet normal 0 0 -1
    outer loop
      vertex 2.91522 -1.93687 0
      vertex 2.21557 -1.47202 0
      vertex 2.33098 -1.28146 0
    endloop
  endfacet
  facet normal 0 0 -1
    outer loop
      vertex 1.77989 -1.97676 0
      vertex 2.34196 -2.60101 0
      vertex 2.1161 -2.78785 0
    endloop
  endfacet
  facet normal 0 0 -1
    outer loop
      vertex 2.74293 -2.17402 0
      vertex 2.08462 -1.65225 0
      vertex 2.21557 -1.47202 0
    endloop
  endfacet
  facet normal 0 0 -1
    outer loop
      vertex 2.55139 -2.39591 0
      vertex 1.93906 -1.8209 0
      vertex 2.08462 -1.65225 0
    endloop
  endfacet
  facet normal 0 0 -1
    outer loop
      vertex 1.60823 -2.11877 0
      vertex 2.1161 -2.78785 0
      vertex 1.87539 -2.95515 0
    endloop
  endfacet
  facet normal 0 0 -1
    outer loop
      vertex 2.34196 -2.60101 0
      vertex 1.77989 -1.97676 0
      vertex 1.93906 -1.8209 0
    endloop
  endfacet
  facet normal 0 0 -1
    outer loop
      vertex 1.4253 -2.24591 0
      vertex 1.87539 -2.95515 0
      vertex 1.62154 -3.10171 0
    endloop
  endfacet
  facet normal 0 0 -1
    outer loop
      vertex 2.1161 -2.78785 0
      vertex 1.60823 -2.11877 0
      vertex 1.77989 -1.97676 0
    endloop
  endfacet
  facet normal 0 0 -1
    outer loop
      vertex 1.87539 -2.95515 0
      vertex 1.4253 -2.24591 0
      vertex 1.60823 -2.11877 0
    endloop
  endfacet
  facet normal 0 0 -1
    outer loop
      vertex 1.23237 -2.3573 0
      vertex 1.62154 -3.10171 0
      vertex 1.3563 -3.22652 0
    endloop
  endfacet
  facet normal 0 0 -1
    outer loop
      vertex 1.62154 -3.10171 0
      vertex 1.23237 -2.3573 0
      vertex 1.4253 -2.24591 0
    endloop
  endfacet
  facet normal 0 0 -1
    outer loop
      vertex 1.03079 -2.45216 0
      vertex 1.3563 -3.22652 0
      vertex 1.08156 -3.3287 0
    endloop
  endfacet
  facet normal 0 0 -1
    outer loop
      vertex 1.3563 -3.22652 0
      vertex 1.03079 -2.45216 0
      vertex 1.23237 -2.3573 0
    endloop
  endfacet
  facet normal 0 0 -1
    outer loop
      vertex 1.08156 -3.3287 0
      vertex 0.821984 -2.52981 0
      vertex 1.03079 -2.45216 0
    endloop
  endfacet
  facet normal 0 0 -1
    outer loop
      vertex 0.799228 -3.40753 0
      vertex 0.821984 -2.52981 0
      vertex 1.08156 -3.3287 0
    endloop
  endfacet
  facet normal 0 0 -1
    outer loop
      vertex 0.799228 -3.40753 0
      vertex 0.607413 -2.58972 0
      vertex 0.821984 -2.52981 0
    endloop
  endfacet
  facet normal 0 0 -1
    outer loop
      vertex 0.511291 -3.46245 0
      vertex 0.607413 -2.58972 0
      vertex 0.799228 -3.40753 0
    endloop
  endfacet
  facet normal 0 0 -1
    outer loop
      vertex 0.511291 -3.46245 0
      vertex 0.38858 -2.63146 0
      vertex 0.607413 -2.58972 0
    endloop
  endfacet
  facet normal 0 0 -1
    outer loop
      vertex 0.219767 -3.49309 0
      vertex 0.38858 -2.63146 0
      vertex 0.511291 -3.46245 0
    endloop
  endfacet
  facet normal 0 0 -1
    outer loop
      vertex 0.219767 -3.49309 0
      vertex 0.167023 -2.65475 0
      vertex 0.38858 -2.63146 0
    endloop
  endfacet
  facet normal 0 0 -1
    outer loop
      vertex 0.219767 -3.49309 0
      vertex -0.055706 -2.65942 0
      vertex 0.167023 -2.65475 0
    endloop
  endfacet
  facet normal 0 0 -1
    outer loop
      vertex -0.0732985 -3.49923 0
      vertex -0.055706 -2.65942 0
      vertex 0.219767 -3.49309 0
    endloop
  endfacet
  facet normal 0 0 -1
    outer loop
      vertex -0.0732985 -3.49923 0
      vertex -0.278046 -2.64543 0
      vertex -0.055706 -2.65942 0
    endloop
  endfacet
  facet normal 0 0 -1
    outer loop
      vertex -0.365849 -3.48083 0
      vertex -0.278046 -2.64543 0
      vertex -0.0732985 -3.49923 0
    endloop
  endfacet
  facet normal 0 0 -1
    outer loop
      vertex -0.365849 -3.48083 0
      vertex -0.498434 -2.61288 0
      vertex -0.278046 -2.64543 0
    endloop
  endfacet
  facet normal 0 0 -1
    outer loop
      vertex -0.655834 -3.438 0
      vertex -0.498434 -2.61288 0
      vertex -0.365849 -3.48083 0
    endloop
  endfacet
  facet normal 0 0 -1
    outer loop
      vertex -0.655834 -3.438 0
      vertex -0.715326 -2.56201 0
      vertex -0.498434 -2.61288 0
    endloop
  endfacet
  facet normal 0 0 -1
    outer loop
      vertex -0.941219 -3.37107 0
      vertex -0.715326 -2.56201 0
      vertex -0.655834 -3.438 0
    endloop
  endfacet
  facet normal -0 0 -1
    outer loop
      vertex -0.715326 -2.56201 0
      vertex -0.941219 -3.37107 0
      vertex -0.927201 -2.49317 0
    endloop
  endfacet
  facet normal 0 0 -1
    outer loop
      vertex -1.22 -3.28049 0
      vertex -0.927201 -2.49317 0
      vertex -0.941219 -3.37107 0
    endloop
  endfacet
  facet normal -0 0 -1
    outer loop
      vertex -0.927201 -2.49317 0
      vertex -1.22 -3.28049 0
      vertex -1.13257 -2.40684 0
    endloop
  endfacet
  facet normal 0 0 -1
    outer loop
      vertex -1.49023 -3.16689 0
      vertex -1.13257 -2.40684 0
      vertex -1.22 -3.28049 0
    endloop
  endfacet
  facet normal -0 0 -1
    outer loop
      vertex -1.13257 -2.40684 0
      vertex -1.49023 -3.16689 0
      vertex -1.33 -2.30363 0
    endloop
  endfacet
  facet normal 0 0 -1
    outer loop
      vertex -1.75 -3.03109 0
      vertex -1.33 -2.30363 0
      vertex -1.49023 -3.16689 0
    endloop
  endfacet
  facet normal -0 0 -1
    outer loop
      vertex -1.33 -2.30363 0
      vertex -1.75 -3.03109 0
      vertex -1.5181 -2.18426 0
    endloop
  endfacet
  facet normal 0 0 -1
    outer loop
      vertex -1.9975 -2.87402 0
      vertex -1.5181 -2.18426 0
      vertex -1.75 -3.03109 0
    endloop
  endfacet
  facet normal -0 0 -1
    outer loop
      vertex -1.5181 -2.18426 0
      vertex -1.9975 -2.87402 0
      vertex -1.69555 -2.04956 0
    endloop
  endfacet
  facet normal 0 0 -1
    outer loop
      vertex -2.23098 -2.6968 0
      vertex -1.69555 -2.04956 0
      vertex -1.9975 -2.87402 0
    endloop
  endfacet
  facet normal -0 0 -1
    outer loop
      vertex -1.69555 -2.04956 0
      vertex -2.23098 -2.6968 0
      vertex -1.8611 -1.9005 0
    endloop
  endfacet
  facet normal 0 0 -1
    outer loop
      vertex -2.44882 -2.50065 0
      vertex -1.8611 -1.9005 0
      vertex -2.23098 -2.6968 0
    endloop
  endfacet
  facet normal -0 0 -1
    outer loop
      vertex -1.8611 -1.9005 0
      vertex -2.44882 -2.50065 0
      vertex -2.01361 -1.7381 0
    endloop
  endfacet
  facet normal 0 0 -1
    outer loop
      vertex -2.64948 -2.28697 0
      vertex -2.01361 -1.7381 0
      vertex -2.44882 -2.50065 0
    endloop
  endfacet
  facet normal -0 0 -1
    outer loop
      vertex -2.01361 -1.7381 0
      vertex -2.64948 -2.28697 0
      vertex -2.15199 -1.56351 0
    endloop
  endfacet
  facet normal 0 0 -1
    outer loop
      vertex -2.83156 -2.05725 0
      vertex -2.15199 -1.56351 0
      vertex -2.64948 -2.28697 0
    endloop
  endfacet
  facet normal -0 0 -1
    outer loop
      vertex -2.15199 -1.56351 0
      vertex -2.83156 -2.05725 0
      vertex -2.27527 -1.37795 0
    endloop
  endfacet
  facet normal 0 0 -1
    outer loop
      vertex -2.99377 -1.81309 0
      vertex -2.27527 -1.37795 0
      vertex -2.83156 -2.05725 0
    endloop
  endfacet
  facet normal -0 0 -1
    outer loop
      vertex -2.27527 -1.37795 0
      vertex -2.99377 -1.81309 0
      vertex -2.38259 -1.18273 0
    endloop
  endfacet
  facet normal 0 0 -1
    outer loop
      vertex -3.13499 -1.55622 0
      vertex -2.38259 -1.18273 0
      vertex -2.99377 -1.81309 0
    endloop
  endfacet
  facet normal -0 0 -1
    outer loop
      vertex -2.38259 -1.18273 0
      vertex -3.13499 -1.55622 0
      vertex -2.4732 -0.979211 0
    endloop
  endfacet
  facet normal 0 0 -1
    outer loop
      vertex -3.25422 -1.28843 0
      vertex -2.4732 -0.979211 0
      vertex -3.13499 -1.55622 0
    endloop
  endfacet
  facet normal 0 0 -1
    outer loop
      vertex -3.35062 -1.01161 0
      vertex -2.54647 -0.768825 0
      vertex -3.25422 -1.28843 0
    endloop
  endfacet
  facet normal -0 0 -1
    outer loop
      vertex -2.4732 -0.979211 0
      vertex -3.25422 -1.28843 0
      vertex -2.54647 -0.768825 0
    endloop
  endfacet
  facet normal -0 0 -1
    outer loop
      vertex 3.30532 1.15103 0
      vertex 2.51204 0.874784 0
      vertex 3.19741 1.42358 0
    endloop
  endfacet
  facet normal 0 0 -1
    outer loop
      vertex 2.43003 1.08192 0
      vertex 3.19741 1.42358 0
      vertex 2.51204 0.874784 0
    endloop
  endfacet
  facet normal -0 0 -1
    outer loop
      vertex 3.19741 1.42358 0
      vertex 2.43003 1.08192 0
      vertex 3.06707 1.68614 0
    endloop
  endfacet
  facet normal 0 0 -1
    outer loop
      vertex 2.33098 1.28146 0
      vertex 3.06707 1.68614 0
      vertex 2.43003 1.08192 0
    endloop
  endfacet
  facet normal -0 0 -1
    outer loop
      vertex 3.06707 1.68614 0
      vertex 2.33098 1.28146 0
      vertex 2.91522 1.93687 0
    endloop
  endfacet
  facet normal 0 0 -1
    outer loop
      vertex 2.21557 1.47202 0
      vertex 2.91522 1.93687 0
      vertex 2.33098 1.28146 0
    endloop
  endfacet
  facet normal -0 0 -1
    outer loop
      vertex 2.91522 1.93687 0
      vertex 2.21557 1.47202 0
      vertex 2.74293 2.17402 0
    endloop
  endfacet
  facet normal 0 0 -1
    outer loop
      vertex 2.08462 1.65225 0
      vertex 2.74293 2.17402 0
      vertex 2.21557 1.47202 0
    endloop
  endfacet
  facet normal -0 0 -1
    outer loop
      vertex 2.74293 2.17402 0
      vertex 2.08462 1.65225 0
      vertex 2.55139 2.39591 0
    endloop
  endfacet
  facet normal 0 0 -1
    outer loop
      vertex 1.93906 1.8209 0
      vertex 2.55139 2.39591 0
      vertex 2.08462 1.65225 0
    endloop
  endfacet
  facet normal -0 0 -1
    outer loop
      vertex 2.55139 2.39591 0
      vertex 1.93906 1.8209 0
      vertex 2.34196 2.60101 0
    endloop
  endfacet
  facet normal 0 0 -1
    outer loop
      vertex 1.77989 1.97676 0
      vertex 2.34196 2.60101 0
      vertex 1.93906 1.8209 0
    endloop
  endfacet
  facet normal -0 0 -1
    outer loop
      vertex 2.34196 2.60101 0
      vertex 1.77989 1.97676 0
      vertex 2.1161 2.78785 0
    endloop
  endfacet
  facet normal 0 0 -1
    outer loop
      vertex 1.60823 2.11877 0
      vertex 2.1161 2.78785 0
      vertex 1.77989 1.97676 0
    endloop
  endfacet
  facet normal -0 0 -1
    outer loop
      vertex 2.1161 2.78785 0
      vertex 1.60823 2.11877 0
      vertex 1.87539 2.95515 0
    endloop
  endfacet
  facet normal 0 0 -1
    outer loop
      vertex 1.4253 2.24591 0
      vertex 1.87539 2.95515 0
      vertex 1.60823 2.11877 0
    endloop
  endfacet
  facet normal -0 0 -1
    outer loop
      vertex 1.87539 2.95515 0
      vertex 1.4253 2.24591 0
      vertex 1.62154 3.10171 0
    endloop
  endfacet
  facet normal 0 0 -1
    outer loop
      vertex 1.23237 2.3573 0
      vertex 1.62154 3.10171 0
      vertex 1.4253 2.24591 0
    endloop
  endfacet
  facet normal -0 0 -1
    outer loop
      vertex 1.62154 3.10171 0
      vertex 1.23237 2.3573 0
      vertex 1.3563 3.22652 0
    endloop
  endfacet
  facet normal 0 0 -1
    outer loop
      vertex 1.03079 2.45216 0
      vertex 1.3563 3.22652 0
      vertex 1.23237 2.3573 0
    endloop
  endfacet
  facet normal -0 0 -1
    outer loop
      vertex 1.3563 3.22652 0
      vertex 1.03079 2.45216 0
      vertex 1.08156 3.3287 0
    endloop
  endfacet
  facet normal 0 0 -1
    outer loop
      vertex 0.821984 2.52981 0
      vertex 1.08156 3.3287 0
      vertex 1.03079 2.45216 0
    endloop
  endfacet
  facet normal 0 0 -1
    outer loop
      vertex 0.821984 2.52981 0
      vertex 0.799228 3.40753 0
      vertex 1.08156 3.3287 0
    endloop
  endfacet
  facet normal 0 0 -1
    outer loop
      vertex 0.607413 2.58972 0
      vertex 0.799228 3.40753 0
      vertex 0.821984 2.52981 0
    endloop
  endfacet
  facet normal 0 0 -1
    outer loop
      vertex 0.607413 2.58972 0
      vertex 0.511291 3.46245 0
      vertex 0.799228 3.40753 0
    endloop
  endfacet
  facet normal 0 0 -1
    outer loop
      vertex 0.38858 2.63146 0
      vertex 0.511291 3.46245 0
      vertex 0.607413 2.58972 0
    endloop
  endfacet
  facet normal 0 0 -1
    outer loop
      vertex 0.38858 2.63146 0
      vertex 0.219767 3.49309 0
      vertex 0.511291 3.46245 0
    endloop
  endfacet
  facet normal 0 0 -1
    outer loop
      vertex 0.167023 2.65475 0
      vertex 0.219767 3.49309 0
      vertex 0.38858 2.63146 0
    endloop
  endfacet
  facet normal 0 0 -1
    outer loop
      vertex -0.055706 2.65942 0
      vertex 0.219767 3.49309 0
      vertex 0.167023 2.65475 0
    endloop
  endfacet
  facet normal 0 0 -1
    outer loop
      vertex -0.055706 2.65942 0
      vertex -0.0732985 3.49923 0
      vertex 0.219767 3.49309 0
    endloop
  endfacet
  facet normal 0 0 -1
    outer loop
      vertex -0.278046 2.64543 0
      vertex -0.0732985 3.49923 0
      vertex -0.055706 2.65942 0
    endloop
  endfacet
  facet normal 0 0 -1
    outer loop
      vertex -0.278046 2.64543 0
      vertex -0.365849 3.48083 0
      vertex -0.0732985 3.49923 0
    endloop
  endfacet
  facet normal 0 0 -1
    outer loop
      vertex -0.498434 2.61288 0
      vertex -0.365849 3.48083 0
      vertex -0.278046 2.64543 0
    endloop
  endfacet
  facet normal 0 0 -1
    outer loop
      vertex -0.498434 2.61288 0
      vertex -0.655834 3.438 0
      vertex -0.365849 3.48083 0
    endloop
  endfacet
  facet normal 0 0 -1
    outer loop
      vertex -0.715326 2.56201 0
      vertex -0.655834 3.438 0
      vertex -0.498434 2.61288 0
    endloop
  endfacet
  facet normal 0 0 -1
    outer loop
      vertex -0.941219 3.37107 0
      vertex -0.715326 2.56201 0
      vertex -0.927201 2.49317 0
    endloop
  endfacet
  facet normal 0 0 -1
    outer loop
      vertex -0.715326 2.56201 0
      vertex -0.941219 3.37107 0
      vertex -0.655834 3.438 0
    endloop
  endfacet
  facet normal 0 0 -1
    outer loop
      vertex -1.22 3.28049 0
      vertex -0.927201 2.49317 0
      vertex -1.13257 2.40684 0
    endloop
  endfacet
  facet normal 0 0 -1
    outer loop
      vertex -0.927201 2.49317 0
      vertex -1.22 3.28049 0
      vertex -0.941219 3.37107 0
    endloop
  endfacet
  facet normal 0 0 -1
    outer loop
      vertex -1.49023 3.16689 0
      vertex -1.13257 2.40684 0
      vertex -1.33 2.30363 0
    endloop
  endfacet
  facet normal 0 0 -1
    outer loop
      vertex -1.13257 2.40684 0
      vertex -1.49023 3.16689 0
      vertex -1.22 3.28049 0
    endloop
  endfacet
  facet normal 0 0 -1
    outer loop
      vertex -1.75 3.03109 0
      vertex -1.33 2.30363 0
      vertex -1.5181 2.18426 0
    endloop
  endfacet
  facet normal 0 0 -1
    outer loop
      vertex -1.9975 2.87402 0
      vertex -1.5181 2.18426 0
      vertex -1.69555 2.04956 0
    endloop
  endfacet
  facet normal 0 0 -1
    outer loop
      vertex -1.33 2.30363 0
      vertex -1.75 3.03109 0
      vertex -1.49023 3.16689 0
    endloop
  endfacet
  facet normal 0 0 -1
    outer loop
      vertex -2.23098 2.6968 0
      vertex -1.69555 2.04956 0
      vertex -1.8611 1.9005 0
    endloop
  endfacet
  facet normal 0 0 -1
    outer loop
      vertex -1.5181 2.18426 0
      vertex -1.9975 2.87402 0
      vertex -1.75 3.03109 0
    endloop
  endfacet
  facet normal 0 0 -1
    outer loop
      vertex -2.44882 2.50065 0
      vertex -1.8611 1.9005 0
      vertex -2.01361 1.7381 0
    endloop
  endfacet
  facet normal 0 0 -1
    outer loop
      vertex -2.64948 2.28697 0
      vertex -2.01361 1.7381 0
      vertex -2.15199 1.56351 0
    endloop
  endfacet
  facet normal 0 0 -1
    outer loop
      vertex -1.69555 2.04956 0
      vertex -2.23098 2.6968 0
      vertex -1.9975 2.87402 0
    endloop
  endfacet
  facet normal 0 0 -1
    outer loop
      vertex -2.83156 2.05725 0
      vertex -2.15199 1.56351 0
      vertex -2.27527 1.37795 0
    endloop
  endfacet
  facet normal 0 0 -1
    outer loop
      vertex -2.99377 1.81309 0
      vertex -2.27527 1.37795 0
      vertex -2.38259 1.18273 0
    endloop
  endfacet
  facet normal 0 0 -1
    outer loop
      vertex -1.8611 1.9005 0
      vertex -2.44882 2.50065 0
      vertex -2.23098 2.6968 0
    endloop
  endfacet
  facet normal 0 0 -1
    outer loop
      vertex -3.13499 1.55622 0
      vertex -2.38259 1.18273 0
      vertex -2.4732 0.979211 0
    endloop
  endfacet
  facet normal 0 0 -1
    outer loop
      vertex -3.25422 1.28843 0
      vertex -2.4732 0.979211 0
      vertex -2.54647 0.768825 0
    endloop
  endfacet
  facet normal 0 0 -1
    outer loop
      vertex -3.35062 1.01161 0
      vertex -2.54647 0.768825 0
      vertex -2.60187 0.553044 0
    endloop
  endfacet
  facet normal 0 0 -1
    outer loop
      vertex -3.42352 0.727691 0
      vertex -2.60187 0.553044 0
      vertex -2.63902 0.333385 0
    endloop
  endfacet
  facet normal 0 0 -1
    outer loop
      vertex -2.01361 1.7381 0
      vertex -2.64948 2.28697 0
      vertex -2.44882 2.50065 0
    endloop
  endfacet
  facet normal 0 0 -1
    outer loop
      vertex -3.4724 0.438665 0
      vertex -2.63902 0.333385 0
      vertex -2.65767 0.111389 0
    endloop
  endfacet
  facet normal -0 0 -1
    outer loop
      vertex -2.54647 -0.768825 0
      vertex -3.35062 -1.01161 0
      vertex -2.60187 -0.553044 0
    endloop
  endfacet
  facet normal 0 0 -1
    outer loop
      vertex -2.15199 1.56351 0
      vertex -2.83156 2.05725 0
      vertex -2.64948 2.28697 0
    endloop
  endfacet
  facet normal 0 0 -1
    outer loop
      vertex -3.42352 -0.727691 0
      vertex -2.60187 -0.553044 0
      vertex -3.35062 -1.01161 0
    endloop
  endfacet
  facet normal 0 0 -1
    outer loop
      vertex -2.27527 1.37795 0
      vertex -2.99377 1.81309 0
      vertex -2.83156 2.05725 0
    endloop
  endfacet
  facet normal -0 0 -1
    outer loop
      vertex -2.60187 -0.553044 0
      vertex -3.42352 -0.727691 0
      vertex -2.63902 -0.333385 0
    endloop
  endfacet
  facet normal 0 0 -1
    outer loop
      vertex -2.38259 1.18273 0
      vertex -3.13499 1.55622 0
      vertex -2.99377 1.81309 0
    endloop
  endfacet
  facet normal 0 0 -1
    outer loop
      vertex -3.4724 -0.438665 0
      vertex -2.63902 -0.333385 0
      vertex -3.42352 -0.727691 0
    endloop
  endfacet
  facet normal 0 0 -1
    outer loop
      vertex -2.4732 0.979211 0
      vertex -3.25422 1.28843 0
      vertex -3.13499 1.55622 0
    endloop
  endfacet
  facet normal -0 0 -1
    outer loop
      vertex -2.63902 -0.333385 0
      vertex -3.4724 -0.438665 0
      vertex -2.65767 -0.111389 0
    endloop
  endfacet
  facet normal 0 0 -1
    outer loop
      vertex -2.54647 0.768825 0
      vertex -3.35062 1.01161 0
      vertex -3.25422 1.28843 0
    endloop
  endfacet
  facet normal 0 0 -1
    outer loop
      vertex -3.49693 -0.146564 0
      vertex -2.65767 -0.111389 0
      vertex -3.4724 -0.438665 0
    endloop
  endfacet
  facet normal 0 0 -1
    outer loop
      vertex -2.60187 0.553044 0
      vertex -3.42352 0.727691 0
      vertex -3.35062 1.01161 0
    endloop
  endfacet
  facet normal -0 0 -1
    outer loop
      vertex -2.65767 -0.111389 0
      vertex -3.49693 -0.146564 0
      vertex -2.65767 0.111389 0
    endloop
  endfacet
  facet normal 0 0 -1
    outer loop
      vertex -2.63902 0.333385 0
      vertex -3.4724 0.438665 0
      vertex -3.42352 0.727691 0
    endloop
  endfacet
  facet normal 0 0 -1
    outer loop
      vertex -3.49693 0.146564 0
      vertex -2.65767 0.111389 0
      vertex -3.49693 -0.146564 0
    endloop
  endfacet
  facet normal 0 0 -1
    outer loop
      vertex -2.65767 0.111389 0
      vertex -3.49693 0.146564 0
      vertex -3.4724 0.438665 0
    endloop
  endfacet
  facet normal 0.978147 0.207913 0
    outer loop
      vertex 3.45099 0.58369 15
      vertex 3.39004 0.870414 0
      vertex 3.39004 0.870414 15
    endloop
  endfacet
  facet normal 0.978147 0.207913 0
    outer loop
      vertex 3.39004 0.870414 0
      vertex 3.45099 0.58369 15
      vertex 3.45099 0.58369 0
    endloop
  endfacet
  facet normal 0.992115 0.125332 0
    outer loop
      vertex 3.48772 0.292872 15
      vertex 3.45099 0.58369 0
      vertex 3.45099 0.58369 15
    endloop
  endfacet
  facet normal 0.992115 0.125332 0
    outer loop
      vertex 3.45099 0.58369 0
      vertex 3.48772 0.292872 15
      vertex 3.48772 0.292872 0
    endloop
  endfacet
  facet normal 0.95732 0.289031 0
    outer loop
      vertex 3.39004 0.870414 15
      vertex 3.30532 1.15103 0
      vertex 3.30532 1.15103 15
    endloop
  endfacet
  facet normal 0.95732 0.289031 0
    outer loop
      vertex 3.30532 1.15103 0
      vertex 3.39004 0.870414 15
      vertex 3.39004 0.870414 0
    endloop
  endfacet
  facet normal 0.855365 0.518027 0
    outer loop
      vertex 3.06707 1.68614 15
      vertex 2.91522 1.93687 0
      vertex 2.91522 1.93687 15
    endloop
  endfacet
  facet normal 0.855365 0.518027 0
    outer loop
      vertex 2.91522 1.93687 0
      vertex 3.06707 1.68614 15
      vertex 3.06707 1.68614 0
    endloop
  endfacet
  facet normal 0.809017 0.587785 0
    outer loop
      vertex 2.91522 1.93687 15
      vertex 2.74293 2.17402 0
      vertex 2.74293 2.17402 15
    endloop
  endfacet
  facet normal 0.809017 0.587785 0
    outer loop
      vertex 2.74293 2.17402 0
      vertex 2.91522 1.93687 15
      vertex 2.91522 1.93687 0
    endloop
  endfacet
  facet normal 0.895712 0.444635 0
    outer loop
      vertex 3.19741 1.42358 15
      vertex 3.06707 1.68614 0
      vertex 3.06707 1.68614 15
    endloop
  endfacet
  facet normal 0.895712 0.444635 0
    outer loop
      vertex 3.06707 1.68614 0
      vertex 3.19741 1.42358 15
      vertex 3.19741 1.42358 0
    endloop
  endfacet
  facet normal 0.268921 0.963162 -0
    outer loop
      vertex 1.08156 3.3287 0
      vertex 0.799228 3.40753 15
      vertex 1.08156 3.3287 15
    endloop
  endfacet
  facet normal 0.268921 0.963162 0
    outer loop
      vertex 0.799228 3.40753 15
      vertex 1.08156 3.3287 0
      vertex 0.799228 3.40753 0
    endloop
  endfacet
  facet normal 0.348572 0.937282 -0
    outer loop
      vertex 1.3563 3.22652 0
      vertex 1.08156 3.3287 15
      vertex 1.3563 3.22652 15
    endloop
  endfacet
  facet normal 0.348572 0.937282 0
    outer loop
      vertex 1.08156 3.3287 15
      vertex 1.3563 3.22652 0
      vertex 1.08156 3.3287 0
    endloop
  endfacet
  facet normal 0.570712 0.82115 -0
    outer loop
      vertex 2.1161 2.78785 0
      vertex 1.87539 2.95515 15
      vertex 2.1161 2.78785 15
    endloop
  endfacet
  facet normal 0.570712 0.82115 0
    outer loop
      vertex 1.87539 2.95515 15
      vertex 2.1161 2.78785 0
      vertex 1.87539 2.95515 0
    endloop
  endfacet
  facet normal 0.637423 0.770514 -0
    outer loop
      vertex 2.34196 2.60101 0
      vertex 2.1161 2.78785 15
      vertex 2.34196 2.60101 15
    endloop
  endfacet
  facet normal 0.637423 0.770514 0
    outer loop
      vertex 2.1161 2.78785 15
      vertex 2.34196 2.60101 0
      vertex 2.1161 2.78785 0
    endloop
  endfacet
  facet normal -0.968583 0.248692 0
    outer loop
      vertex -3.42352 0.727691 0
      vertex -3.35062 1.01161 15
      vertex -3.35062 1.01161 0
    endloop
  endfacet
  facet normal -0.968583 0.248692 0
    outer loop
      vertex -3.35062 1.01161 15
      vertex -3.42352 0.727691 0
      vertex -3.42352 0.727691 15
    endloop
  endfacet
  facet normal -0.913546 0.406735 0
    outer loop
      vertex -3.25422 1.28843 0
      vertex -3.13499 1.55622 15
      vertex -3.13499 1.55622 0
    endloop
  endfacet
  facet normal -0.913546 0.406735 0
    outer loop
      vertex -3.13499 1.55622 15
      vertex -3.25422 1.28843 0
      vertex -3.25422 1.28843 15
    endloop
  endfacet
  facet normal -0.944376 0.328866 0
    outer loop
      vertex -3.35062 1.01161 0
      vertex -3.25422 1.28843 15
      vertex -3.25422 1.28843 0
    endloop
  endfacet
  facet normal -0.944376 0.328866 0
    outer loop
      vertex -3.25422 1.28843 15
      vertex -3.35062 1.01161 0
      vertex -3.35062 1.01161 15
    endloop
  endfacet
  facet normal 0 0 1
    outer loop
      vertex 2.66 0 15
      vertex 3.5 0 15
      vertex 3.48772 0.292872 15
    endloop
  endfacet
  facet normal 0 0 1
    outer loop
      vertex 2.65067 0.222583 15
      vertex 3.48772 0.292872 15
      vertex 3.45099 0.58369 15
    endloop
  endfacet
  facet normal 0 0 1
    outer loop
      vertex 3.5 0 15
      vertex 2.66 0 15
      vertex 3.48772 -0.292872 15
    endloop
  endfacet
  facet normal 0 0 1
    outer loop
      vertex 2.62275 0.443604 15
      vertex 3.45099 0.58369 15
      vertex 3.39004 0.870414 15
    endloop
  endfacet
  facet normal -0 0 1
    outer loop
      vertex 2.65067 -0.222583 15
      vertex 3.48772 -0.292872 15
      vertex 2.66 0 15
    endloop
  endfacet
  facet normal 0 0 1
    outer loop
      vertex 2.57643 0.661514 15
      vertex 3.39004 0.870414 15
      vertex 3.30532 1.15103 15
    endloop
  endfacet
  facet normal 0 0 1
    outer loop
      vertex 3.48772 -0.292872 15
      vertex 2.65067 -0.222583 15
      vertex 3.45099 -0.58369 15
    endloop
  endfacet
  facet normal 0 0 1
    outer loop
      vertex 2.51204 0.874784 15
      vertex 3.30532 1.15103 15
      vertex 3.19741 1.42358 15
    endloop
  endfacet
  facet normal -0 0 1
    outer loop
      vertex 2.62275 -0.443604 15
      vertex 3.45099 -0.58369 15
      vertex 2.65067 -0.222583 15
    endloop
  endfacet
  facet normal 0 0 1
    outer loop
      vertex 2.43003 1.08192 15
      vertex 3.19741 1.42358 15
      vertex 3.06707 1.68614 15
    endloop
  endfacet
  facet normal 0 0 1
    outer loop
      vertex 3.45099 -0.58369 15
      vertex 2.62275 -0.443604 15
      vertex 3.39004 -0.870414 15
    endloop
  endfacet
  facet normal 0 0 1
    outer loop
      vertex 2.33098 1.28146 15
      vertex 3.06707 1.68614 15
      vertex 2.91522 1.93687 15
    endloop
  endfacet
  facet normal -0 0 1
    outer loop
      vertex 2.57643 -0.661514 15
      vertex 3.39004 -0.870414 15
      vertex 2.62275 -0.443604 15
    endloop
  endfacet
  facet normal 0 0 1
    outer loop
      vertex 2.21557 1.47202 15
      vertex 2.91522 1.93687 15
      vertex 2.74293 2.17402 15
    endloop
  endfacet
  facet normal 0 0 1
    outer loop
      vertex 3.39004 -0.870414 15
      vertex 2.57643 -0.661514 15
      vertex 3.30532 -1.15103 15
    endloop
  endfacet
  facet normal -0 0 1
    outer loop
      vertex 2.51204 -0.874784 15
      vertex 3.30532 -1.15103 15
      vertex 2.57643 -0.661514 15
    endloop
  endfacet
  facet normal 0 0 1
    outer loop
      vertex 3.48772 0.292872 15
      vertex 2.65067 0.222583 15
      vertex 2.66 0 15
    endloop
  endfacet
  facet normal 0 0 1
    outer loop
      vertex 3.45099 0.58369 15
      vertex 2.62275 0.443604 15
      vertex 2.65067 0.222583 15
    endloop
  endfacet
  facet normal 0 0 1
    outer loop
      vertex 3.39004 0.870414 15
      vertex 2.57643 0.661514 15
      vertex 2.62275 0.443604 15
    endloop
  endfacet
  facet normal 0 0 1
    outer loop
      vertex 2.08462 1.65225 15
      vertex 2.74293 2.17402 15
      vertex 2.55139 2.39591 15
    endloop
  endfacet
  facet normal 0 0 1
    outer loop
      vertex 3.30532 1.15103 15
      vertex 2.51204 0.874784 15
      vertex 2.57643 0.661514 15
    endloop
  endfacet
  facet normal 0 0 1
    outer loop
      vertex 3.19741 1.42358 15
      vertex 2.43003 1.08192 15
      vertex 2.51204 0.874784 15
    endloop
  endfacet
  facet normal 0 0 1
    outer loop
      vertex 1.93906 1.8209 15
      vertex 2.55139 2.39591 15
      vertex 2.34196 2.60101 15
    endloop
  endfacet
  facet normal 0 0 1
    outer loop
      vertex 3.06707 1.68614 15
      vertex 2.33098 1.28146 15
      vertex 2.43003 1.08192 15
    endloop
  endfacet
  facet normal 0 0 1
    outer loop
      vertex 2.91522 1.93687 15
      vertex 2.21557 1.47202 15
      vertex 2.33098 1.28146 15
    endloop
  endfacet
  facet normal 0 0 1
    outer loop
      vertex 1.77989 1.97676 15
      vertex 2.34196 2.60101 15
      vertex 2.1161 2.78785 15
    endloop
  endfacet
  facet normal 0 0 1
    outer loop
      vertex 2.74293 2.17402 15
      vertex 2.08462 1.65225 15
      vertex 2.21557 1.47202 15
    endloop
  endfacet
  facet normal 0 0 1
    outer loop
      vertex 2.55139 2.39591 15
      vertex 1.93906 1.8209 15
      vertex 2.08462 1.65225 15
    endloop
  endfacet
  facet normal 0 0 1
    outer loop
      vertex 1.60823 2.11877 15
      vertex 2.1161 2.78785 15
      vertex 1.87539 2.95515 15
    endloop
  endfacet
  facet normal 0 0 1
    outer loop
      vertex 2.34196 2.60101 15
      vertex 1.77989 1.97676 15
      vertex 1.93906 1.8209 15
    endloop
  endfacet
  facet normal 0 0 1
    outer loop
      vertex 1.4253 2.24591 15
      vertex 1.87539 2.95515 15
      vertex 1.62154 3.10171 15
    endloop
  endfacet
  facet normal 0 0 1
    outer loop
      vertex 2.1161 2.78785 15
      vertex 1.60823 2.11877 15
      vertex 1.77989 1.97676 15
    endloop
  endfacet
  facet normal 0 0 1
    outer loop
      vertex 1.87539 2.95515 15
      vertex 1.4253 2.24591 15
      vertex 1.60823 2.11877 15
    endloop
  endfacet
  facet normal 0 0 1
    outer loop
      vertex 1.23237 2.3573 15
      vertex 1.62154 3.10171 15
      vertex 1.3563 3.22652 15
    endloop
  endfacet
  facet normal 0 0 1
    outer loop
      vertex 1.62154 3.10171 15
      vertex 1.23237 2.3573 15
      vertex 1.4253 2.24591 15
    endloop
  endfacet
  facet normal 0 0 1
    outer loop
      vertex 1.03079 2.45216 15
      vertex 1.3563 3.22652 15
      vertex 1.08156 3.3287 15
    endloop
  endfacet
  facet normal 0 0 1
    outer loop
      vertex 1.3563 3.22652 15
      vertex 1.03079 2.45216 15
      vertex 1.23237 2.3573 15
    endloop
  endfacet
  facet normal 0 0 1
    outer loop
      vertex 1.08156 3.3287 15
      vertex 0.821984 2.52981 15
      vertex 1.03079 2.45216 15
    endloop
  endfacet
  facet normal 0 0 1
    outer loop
      vertex 0.799228 3.40753 15
      vertex 0.821984 2.52981 15
      vertex 1.08156 3.3287 15
    endloop
  endfacet
  facet normal 0 0 1
    outer loop
      vertex 0.799228 3.40753 15
      vertex 0.607413 2.58972 15
      vertex 0.821984 2.52981 15
    endloop
  endfacet
  facet normal 0 0 1
    outer loop
      vertex 0.511291 3.46245 15
      vertex 0.607413 2.58972 15
      vertex 0.799228 3.40753 15
    endloop
  endfacet
  facet normal 0 0 1
    outer loop
      vertex 0.511291 3.46245 15
      vertex 0.38858 2.63146 15
      vertex 0.607413 2.58972 15
    endloop
  endfacet
  facet normal 0 0 1
    outer loop
      vertex 0.219767 3.49309 15
      vertex 0.38858 2.63146 15
      vertex 0.511291 3.46245 15
    endloop
  endfacet
  facet normal 0 0 1
    outer loop
      vertex 0.219767 3.49309 15
      vertex 0.167023 2.65475 15
      vertex 0.38858 2.63146 15
    endloop
  endfacet
  facet normal 0 0 1
    outer loop
      vertex 0.219767 3.49309 15
      vertex -0.055706 2.65942 15
      vertex 0.167023 2.65475 15
    endloop
  endfacet
  facet normal 0 0 1
    outer loop
      vertex -0.0732985 3.49923 15
      vertex -0.055706 2.65942 15
      vertex 0.219767 3.49309 15
    endloop
  endfacet
  facet normal 0 0 1
    outer loop
      vertex -0.0732985 3.49923 15
      vertex -0.278046 2.64543 15
      vertex -0.055706 2.65942 15
    endloop
  endfacet
  facet normal -0 0 1
    outer loop
      vertex -0.365849 3.48083 15
      vertex -0.278046 2.64543 15
      vertex -0.0732985 3.49923 15
    endloop
  endfacet
  facet normal 0 0 1
    outer loop
      vertex -0.365849 3.48083 15
      vertex -0.498434 2.61288 15
      vertex -0.278046 2.64543 15
    endloop
  endfacet
  facet normal -0 0 1
    outer loop
      vertex -0.655834 3.438 15
      vertex -0.498434 2.61288 15
      vertex -0.365849 3.48083 15
    endloop
  endfacet
  facet normal 0 0 1
    outer loop
      vertex -0.655834 3.438 15
      vertex -0.715326 2.56201 15
      vertex -0.498434 2.61288 15
    endloop
  endfacet
  facet normal -0 0 1
    outer loop
      vertex -0.941219 3.37107 15
      vertex -0.715326 2.56201 15
      vertex -0.655834 3.438 15
    endloop
  endfacet
  facet normal 0 0 1
    outer loop
      vertex -0.715326 2.56201 15
      vertex -0.941219 3.37107 15
      vertex -0.927201 2.49317 15
    endloop
  endfacet
  facet normal -0 0 1
    outer loop
      vertex -1.22 3.28049 15
      vertex -0.927201 2.49317 15
      vertex -0.941219 3.37107 15
    endloop
  endfacet
  facet normal 0 0 1
    outer loop
      vertex -0.927201 2.49317 15
      vertex -1.22 3.28049 15
      vertex -1.13257 2.40684 15
    endloop
  endfacet
  facet normal -0 0 1
    outer loop
      vertex -1.49023 3.16689 15
      vertex -1.13257 2.40684 15
      vertex -1.22 3.28049 15
    endloop
  endfacet
  facet normal 0 0 1
    outer loop
      vertex -1.13257 2.40684 15
      vertex -1.49023 3.16689 15
      vertex -1.33 2.30363 15
    endloop
  endfacet
  facet normal -0 0 1
    outer loop
      vertex -1.75 3.03109 15
      vertex -1.33 2.30363 15
      vertex -1.49023 3.16689 15
    endloop
  endfacet
  facet normal 0 0 1
    outer loop
      vertex -1.33 2.30363 15
      vertex -1.75 3.03109 15
      vertex -1.5181 2.18426 15
    endloop
  endfacet
  facet normal -0 0 1
    outer loop
      vertex -1.9975 2.87402 15
      vertex -1.5181 2.18426 15
      vertex -1.75 3.03109 15
    endloop
  endfacet
  facet normal 0 0 1
    outer loop
      vertex -1.5181 2.18426 15
      vertex -1.9975 2.87402 15
      vertex -1.69555 2.04956 15
    endloop
  endfacet
  facet normal -0 0 1
    outer loop
      vertex -2.23098 2.6968 15
      vertex -1.69555 2.04956 15
      vertex -1.9975 2.87402 15
    endloop
  endfacet
  facet normal 0 0 1
    outer loop
      vertex -1.69555 2.04956 15
      vertex -2.23098 2.6968 15
      vertex -1.8611 1.9005 15
    endloop
  endfacet
  facet normal -0 0 1
    outer loop
      vertex -2.44882 2.50065 15
      vertex -1.8611 1.9005 15
      vertex -2.23098 2.6968 15
    endloop
  endfacet
  facet normal 0 0 1
    outer loop
      vertex -1.8611 1.9005 15
      vertex -2.44882 2.50065 15
      vertex -2.01361 1.7381 15
    endloop
  endfacet
  facet normal -0 0 1
    outer loop
      vertex -2.64948 2.28697 15
      vertex -2.01361 1.7381 15
      vertex -2.44882 2.50065 15
    endloop
  endfacet
  facet normal 0 0 1
    outer loop
      vertex -2.01361 1.7381 15
      vertex -2.64948 2.28697 15
      vertex -2.15199 1.56351 15
    endloop
  endfacet
  facet normal -0 0 1
    outer loop
      vertex -2.83156 2.05725 15
      vertex -2.15199 1.56351 15
      vertex -2.64948 2.28697 15
    endloop
  endfacet
  facet normal 0 0 1
    outer loop
      vertex -2.15199 1.56351 15
      vertex -2.83156 2.05725 15
      vertex -2.27527 1.37795 15
    endloop
  endfacet
  facet normal -0 0 1
    outer loop
      vertex -2.99377 1.81309 15
      vertex -2.27527 1.37795 15
      vertex -2.83156 2.05725 15
    endloop
  endfacet
  facet normal 0 0 1
    outer loop
      vertex -2.27527 1.37795 15
      vertex -2.99377 1.81309 15
      vertex -2.38259 1.18273 15
    endloop
  endfacet
  facet normal -0 0 1
    outer loop
      vertex -3.13499 1.55622 15
      vertex -2.38259 1.18273 15
      vertex -2.99377 1.81309 15
    endloop
  endfacet
  facet normal 0 0 1
    outer loop
      vertex -2.38259 1.18273 15
      vertex -3.13499 1.55622 15
      vertex -2.4732 0.979211 15
    endloop
  endfacet
  facet normal -0 0 1
    outer loop
      vertex -3.25422 1.28843 15
      vertex -2.4732 0.979211 15
      vertex -3.13499 1.55622 15
    endloop
  endfacet
  facet normal -0 0 1
    outer loop
      vertex -3.35062 1.01161 15
      vertex -2.54647 0.768825 15
      vertex -3.25422 1.28843 15
    endloop
  endfacet
  facet normal 0 0 1
    outer loop
      vertex -2.4732 0.979211 15
      vertex -3.25422 1.28843 15
      vertex -2.54647 0.768825 15
    endloop
  endfacet
  facet normal 0 0 1
    outer loop
      vertex 3.30532 -1.15103 15
      vertex 2.51204 -0.874784 15
      vertex 3.19741 -1.42358 15
    endloop
  endfacet
  facet normal -0 0 1
    outer loop
      vertex 2.43003 -1.08192 15
      vertex 3.19741 -1.42358 15
      vertex 2.51204 -0.874784 15
    endloop
  endfacet
  facet normal 0 0 1
    outer loop
      vertex 3.19741 -1.42358 15
      vertex 2.43003 -1.08192 15
      vertex 3.06707 -1.68614 15
    endloop
  endfacet
  facet normal -0 0 1
    outer loop
      vertex 2.33098 -1.28146 15
      vertex 3.06707 -1.68614 15
      vertex 2.43003 -1.08192 15
    endloop
  endfacet
  facet normal 0 0 1
    outer loop
      vertex 3.06707 -1.68614 15
      vertex 2.33098 -1.28146 15
      vertex 2.91522 -1.93687 15
    endloop
  endfacet
  facet normal -0 0 1
    outer loop
      vertex 2.21557 -1.47202 15
      vertex 2.91522 -1.93687 15
      vertex 2.33098 -1.28146 15
    endloop
  endfacet
  facet normal 0 0 1
    outer loop
      vertex 2.91522 -1.93687 15
      vertex 2.21557 -1.47202 15
      vertex 2.74293 -2.17402 15
    endloop
  endfacet
  facet normal -0 0 1
    outer loop
      vertex 2.08462 -1.65225 15
      vertex 2.74293 -2.17402 15
      vertex 2.21557 -1.47202 15
    endloop
  endfacet
  facet normal 0 0 1
    outer loop
      vertex 2.74293 -2.17402 15
      vertex 2.08462 -1.65225 15
      vertex 2.55139 -2.39591 15
    endloop
  endfacet
  facet normal -0 0 1
    outer loop
      vertex 1.93906 -1.8209 15
      vertex 2.55139 -2.39591 15
      vertex 2.08462 -1.65225 15
    endloop
  endfacet
  facet normal 0 0 1
    outer loop
      vertex 2.55139 -2.39591 15
      vertex 1.93906 -1.8209 15
      vertex 2.34196 -2.60101 15
    endloop
  endfacet
  facet normal -0 0 1
    outer loop
      vertex 1.77989 -1.97676 15
      vertex 2.34196 -2.60101 15
      vertex 1.93906 -1.8209 15
    endloop
  endfacet
  facet normal 0 0 1
    outer loop
      vertex 2.34196 -2.60101 15
      vertex 1.77989 -1.97676 15
      vertex 2.1161 -2.78785 15
    endloop
  endfacet
  facet normal -0 0 1
    outer loop
      vertex 1.60823 -2.11877 15
      vertex 2.1161 -2.78785 15
      vertex 1.77989 -1.97676 15
    endloop
  endfacet
  facet normal 0 0 1
    outer loop
      vertex 2.1161 -2.78785 15
      vertex 1.60823 -2.11877 15
      vertex 1.87539 -2.95515 15
    endloop
  endfacet
  facet normal -0 0 1
    outer loop
      vertex 1.4253 -2.24591 15
      vertex 1.87539 -2.95515 15
      vertex 1.60823 -2.11877 15
    endloop
  endfacet
  facet normal 0 0 1
    outer loop
      vertex 1.87539 -2.95515 15
      vertex 1.4253 -2.24591 15
      vertex 1.62154 -3.10171 15
    endloop
  endfacet
  facet normal -0 0 1
    outer loop
      vertex 1.23237 -2.3573 15
      vertex 1.62154 -3.10171 15
      vertex 1.4253 -2.24591 15
    endloop
  endfacet
  facet normal 0 0 1
    outer loop
      vertex 1.62154 -3.10171 15
      vertex 1.23237 -2.3573 15
      vertex 1.3563 -3.22652 15
    endloop
  endfacet
  facet normal -0 0 1
    outer loop
      vertex 1.03079 -2.45216 15
      vertex 1.3563 -3.22652 15
      vertex 1.23237 -2.3573 15
    endloop
  endfacet
  facet normal 0 0 1
    outer loop
      vertex 1.3563 -3.22652 15
      vertex 1.03079 -2.45216 15
      vertex 1.08156 -3.3287 15
    endloop
  endfacet
  facet normal -0 0 1
    outer loop
      vertex 0.821984 -2.52981 15
      vertex 1.08156 -3.3287 15
      vertex 1.03079 -2.45216 15
    endloop
  endfacet
  facet normal 0 0 1
    outer loop
      vertex 0.821984 -2.52981 15
      vertex 0.799228 -3.40753 15
      vertex 1.08156 -3.3287 15
    endloop
  endfacet
  facet normal -0 0 1
    outer loop
      vertex 0.607413 -2.58972 15
      vertex 0.799228 -3.40753 15
      vertex 0.821984 -2.52981 15
    endloop
  endfacet
  facet normal 0 0 1
    outer loop
      vertex 0.607413 -2.58972 15
      vertex 0.511291 -3.46245 15
      vertex 0.799228 -3.40753 15
    endloop
  endfacet
  facet normal -0 0 1
    outer loop
      vertex 0.38858 -2.63146 15
      vertex 0.511291 -3.46245 15
      vertex 0.607413 -2.58972 15
    endloop
  endfacet
  facet normal 0 0 1
    outer loop
      vertex 0.38858 -2.63146 15
      vertex 0.219767 -3.49309 15
      vertex 0.511291 -3.46245 15
    endloop
  endfacet
  facet normal -0 0 1
    outer loop
      vertex 0.167023 -2.65475 15
      vertex 0.219767 -3.49309 15
      vertex 0.38858 -2.63146 15
    endloop
  endfacet
  facet normal -0 0 1
    outer loop
      vertex -0.055706 -2.65942 15
      vertex 0.219767 -3.49309 15
      vertex 0.167023 -2.65475 15
    endloop
  endfacet
  facet normal 0 0 1
    outer loop
      vertex -0.055706 -2.65942 15
      vertex -0.0732985 -3.49923 15
      vertex 0.219767 -3.49309 15
    endloop
  endfacet
  facet normal 0 0 1
    outer loop
      vertex -0.278046 -2.64543 15
      vertex -0.0732985 -3.49923 15
      vertex -0.055706 -2.65942 15
    endloop
  endfacet
  facet normal 0 0 1
    outer loop
      vertex -0.278046 -2.64543 15
      vertex -0.365849 -3.48083 15
      vertex -0.0732985 -3.49923 15
    endloop
  endfacet
  facet normal 0 0 1
    outer loop
      vertex -0.498434 -2.61288 15
      vertex -0.365849 -3.48083 15
      vertex -0.278046 -2.64543 15
    endloop
  endfacet
  facet normal 0 0 1
    outer loop
      vertex -0.498434 -2.61288 15
      vertex -0.655834 -3.438 15
      vertex -0.365849 -3.48083 15
    endloop
  endfacet
  facet normal 0 0 1
    outer loop
      vertex -0.715326 -2.56201 15
      vertex -0.655834 -3.438 15
      vertex -0.498434 -2.61288 15
    endloop
  endfacet
  facet normal 0 0 1
    outer loop
      vertex -0.941219 -3.37107 15
      vertex -0.715326 -2.56201 15
      vertex -0.927201 -2.49317 15
    endloop
  endfacet
  facet normal 0 0 1
    outer loop
      vertex -0.715326 -2.56201 15
      vertex -0.941219 -3.37107 15
      vertex -0.655834 -3.438 15
    endloop
  endfacet
  facet normal 0 0 1
    outer loop
      vertex -1.22 -3.28049 15
      vertex -0.927201 -2.49317 15
      vertex -1.13257 -2.40684 15
    endloop
  endfacet
  facet normal 0 0 1
    outer loop
      vertex -0.927201 -2.49317 15
      vertex -1.22 -3.28049 15
      vertex -0.941219 -3.37107 15
    endloop
  endfacet
  facet normal 0 0 1
    outer loop
      vertex -1.49023 -3.16689 15
      vertex -1.13257 -2.40684 15
      vertex -1.33 -2.30363 15
    endloop
  endfacet
  facet normal 0 0 1
    outer loop
      vertex -1.13257 -2.40684 15
      vertex -1.49023 -3.16689 15
      vertex -1.22 -3.28049 15
    endloop
  endfacet
  facet normal 0 0 1
    outer loop
      vertex -1.75 -3.03109 15
      vertex -1.33 -2.30363 15
      vertex -1.5181 -2.18426 15
    endloop
  endfacet
  facet normal 0 0 1
    outer loop
      vertex -1.9975 -2.87402 15
      vertex -1.5181 -2.18426 15
      vertex -1.69555 -2.04956 15
    endloop
  endfacet
  facet normal 0 0 1
    outer loop
      vertex -1.33 -2.30363 15
      vertex -1.75 -3.03109 15
      vertex -1.49023 -3.16689 15
    endloop
  endfacet
  facet normal 0 0 1
    outer loop
      vertex -2.23098 -2.6968 15
      vertex -1.69555 -2.04956 15
      vertex -1.8611 -1.9005 15
    endloop
  endfacet
  facet normal 0 0 1
    outer loop
      vertex -1.5181 -2.18426 15
      vertex -1.9975 -2.87402 15
      vertex -1.75 -3.03109 15
    endloop
  endfacet
  facet normal 0 0 1
    outer loop
      vertex -2.44882 -2.50065 15
      vertex -1.8611 -1.9005 15
      vertex -2.01361 -1.7381 15
    endloop
  endfacet
  facet normal 0 0 1
    outer loop
      vertex -2.64948 -2.28697 15
      vertex -2.01361 -1.7381 15
      vertex -2.15199 -1.56351 15
    endloop
  endfacet
  facet normal 0 0 1
    outer loop
      vertex -1.69555 -2.04956 15
      vertex -2.23098 -2.6968 15
      vertex -1.9975 -2.87402 15
    endloop
  endfacet
  facet normal 0 0 1
    outer loop
      vertex -2.83156 -2.05725 15
      vertex -2.15199 -1.56351 15
      vertex -2.27527 -1.37795 15
    endloop
  endfacet
  facet normal 0 0 1
    outer loop
      vertex -2.99377 -1.81309 15
      vertex -2.27527 -1.37795 15
      vertex -2.38259 -1.18273 15
    endloop
  endfacet
  facet normal 0 0 1
    outer loop
      vertex -1.8611 -1.9005 15
      vertex -2.44882 -2.50065 15
      vertex -2.23098 -2.6968 15
    endloop
  endfacet
  facet normal 0 0 1
    outer loop
      vertex -3.13499 -1.55622 15
      vertex -2.38259 -1.18273 15
      vertex -2.4732 -0.979211 15
    endloop
  endfacet
  facet normal 0 0 1
    outer loop
      vertex -3.25422 -1.28843 15
      vertex -2.4732 -0.979211 15
      vertex -2.54647 -0.768825 15
    endloop
  endfacet
  facet normal 0 0 1
    outer loop
      vertex -3.35062 -1.01161 15
      vertex -2.54647 -0.768825 15
      vertex -2.60187 -0.553044 15
    endloop
  endfacet
  facet normal 0 0 1
    outer loop
      vertex -3.42352 -0.727691 15
      vertex -2.60187 -0.553044 15
      vertex -2.63902 -0.333385 15
    endloop
  endfacet
  facet normal 0 0 1
    outer loop
      vertex -2.01361 -1.7381 15
      vertex -2.64948 -2.28697 15
      vertex -2.44882 -2.50065 15
    endloop
  endfacet
  facet normal 0 0 1
    outer loop
      vertex -3.4724 -0.438665 15
      vertex -2.63902 -0.333385 15
      vertex -2.65767 -0.111389 15
    endloop
  endfacet
  facet normal 0 0 1
    outer loop
      vertex -2.54647 0.768825 15
      vertex -3.35062 1.01161 15
      vertex -2.60187 0.553044 15
    endloop
  endfacet
  facet normal 0 0 1
    outer loop
      vertex -2.15199 -1.56351 15
      vertex -2.83156 -2.05725 15
      vertex -2.64948 -2.28697 15
    endloop
  endfacet
  facet normal -0 0 1
    outer loop
      vertex -3.42352 0.727691 15
      vertex -2.60187 0.553044 15
      vertex -3.35062 1.01161 15
    endloop
  endfacet
  facet normal 0 0 1
    outer loop
      vertex -2.27527 -1.37795 15
      vertex -2.99377 -1.81309 15
      vertex -2.83156 -2.05725 15
    endloop
  endfacet
  facet normal 0 0 1
    outer loop
      vertex -2.60187 0.553044 15
      vertex -3.42352 0.727691 15
      vertex -2.63902 0.333385 15
    endloop
  endfacet
  facet normal 0 0 1
    outer loop
      vertex -2.38259 -1.18273 15
      vertex -3.13499 -1.55622 15
      vertex -2.99377 -1.81309 15
    endloop
  endfacet
  facet normal -0 0 1
    outer loop
      vertex -3.4724 0.438665 15
      vertex -2.63902 0.333385 15
      vertex -3.42352 0.727691 15
    endloop
  endfacet
  facet normal 0 0 1
    outer loop
      vertex -2.4732 -0.979211 15
      vertex -3.25422 -1.28843 15
      vertex -3.13499 -1.55622 15
    endloop
  endfacet
  facet normal 0 0 1
    outer loop
      vertex -2.63902 0.333385 15
      vertex -3.4724 0.438665 15
      vertex -2.65767 0.111389 15
    endloop
  endfacet
  facet normal 0 0 1
    outer loop
      vertex -2.54647 -0.768825 15
      vertex -3.35062 -1.01161 15
      vertex -3.25422 -1.28843 15
    endloop
  endfacet
  facet normal -0 0 1
    outer loop
      vertex -3.49693 0.146564 15
      vertex -2.65767 0.111389 15
      vertex -3.4724 0.438665 15
    endloop
  endfacet
  facet normal 0 0 1
    outer loop
      vertex -2.60187 -0.553044 15
      vertex -3.42352 -0.727691 15
      vertex -3.35062 -1.01161 15
    endloop
  endfacet
  facet normal 0 0 1
    outer loop
      vertex -2.65767 0.111389 15
      vertex -3.49693 0.146564 15
      vertex -2.65767 -0.111389 15
    endloop
  endfacet
  facet normal 0 0 1
    outer loop
      vertex -2.63902 -0.333385 15
      vertex -3.4724 -0.438665 15
      vertex -3.42352 -0.727691 15
    endloop
  endfacet
  facet normal 0 0 1
    outer loop
      vertex -3.49693 -0.146564 15
      vertex -2.65767 -0.111389 15
      vertex -3.49693 0.146564 15
    endloop
  endfacet
  facet normal 0 0 1
    outer loop
      vertex -2.65767 -0.111389 15
      vertex -3.49693 -0.146564 15
      vertex -3.4724 -0.438665 15
    endloop
  endfacet
  facet normal -0.463293 0.886205 0
    outer loop
      vertex -1.49023 3.16689 0
      vertex -1.75 3.03109 15
      vertex -1.49023 3.16689 15
    endloop
  endfacet
  facet normal -0.463293 0.886205 0
    outer loop
      vertex -1.75 3.03109 15
      vertex -1.49023 3.16689 0
      vertex -1.75 3.03109 0
    endloop
  endfacet
  facet normal -0.53583 0.844326 0
    outer loop
      vertex -1.75 3.03109 0
      vertex -1.9975 2.87402 15
      vertex -1.75 3.03109 15
    endloop
  endfacet
  facet normal -0.53583 0.844326 0
    outer loop
      vertex -1.9975 2.87402 15
      vertex -1.75 3.03109 0
      vertex -1.9975 2.87402 0
    endloop
  endfacet
  facet normal -0.0627911 0.998027 0
    outer loop
      vertex -0.0732985 3.49923 0
      vertex -0.365849 3.48083 15
      vertex -0.0732985 3.49923 15
    endloop
  endfacet
  facet normal -0.0627911 0.998027 0
    outer loop
      vertex -0.365849 3.48083 15
      vertex -0.0732985 3.49923 0
      vertex -0.365849 3.48083 0
    endloop
  endfacet
  facet normal 0.104529 -0.994522 0
    outer loop
      vertex 0.219767 -3.49309 0
      vertex 0.511291 -3.46245 15
      vertex 0.219767 -3.49309 15
    endloop
  endfacet
  facet normal 0.104529 -0.994522 0
    outer loop
      vertex 0.511291 -3.46245 15
      vertex 0.219767 -3.49309 0
      vertex 0.511291 -3.46245 0
    endloop
  endfacet
  facet normal 0.699665 -0.714471 0
    outer loop
      vertex 2.34196 -2.60101 0
      vertex 2.55139 -2.39591 15
      vertex 2.34196 -2.60101 15
    endloop
  endfacet
  facet normal 0.699665 -0.714471 0
    outer loop
      vertex 2.55139 -2.39591 15
      vertex 2.34196 -2.60101 0
      vertex 2.55139 -2.39591 0
    endloop
  endfacet
  facet normal 0.637423 -0.770514 0
    outer loop
      vertex 2.1161 -2.78785 0
      vertex 2.34196 -2.60101 15
      vertex 2.1161 -2.78785 15
    endloop
  endfacet
  facet normal 0.637423 -0.770514 0
    outer loop
      vertex 2.34196 -2.60101 15
      vertex 2.1161 -2.78785 0
      vertex 2.34196 -2.60101 0
    endloop
  endfacet
  facet normal 0.809017 -0.587785 0
    outer loop
      vertex 2.74293 -2.17402 15
      vertex 2.91522 -1.93687 0
      vertex 2.91522 -1.93687 15
    endloop
  endfacet
  facet normal 0.809017 -0.587785 0
    outer loop
      vertex 2.91522 -1.93687 0
      vertex 2.74293 -2.17402 15
      vertex 2.74293 -2.17402 0
    endloop
  endfacet
  facet normal 0.855365 -0.518027 0
    outer loop
      vertex 2.91522 -1.93687 15
      vertex 3.06707 -1.68614 0
      vertex 3.06707 -1.68614 15
    endloop
  endfacet
  facet normal 0.855365 -0.518027 0
    outer loop
      vertex 3.06707 -1.68614 0
      vertex 2.91522 -1.93687 15
      vertex 2.91522 -1.93687 0
    endloop
  endfacet
  facet normal -0.66913 -0.743145 0
    outer loop
      vertex -2.44882 -2.50065 0
      vertex -2.23098 -2.6968 15
      vertex -2.44882 -2.50065 15
    endloop
  endfacet
  facet normal -0.66913 -0.743145 -0
    outer loop
      vertex -2.23098 -2.6968 15
      vertex -2.44882 -2.50065 0
      vertex -2.23098 -2.6968 0
    endloop
  endfacet
  facet normal -0.535828 -0.844327 0
    outer loop
      vertex -1.9975 -2.87402 0
      vertex -1.75 -3.03109 15
      vertex -1.9975 -2.87402 15
    endloop
  endfacet
  facet normal -0.535828 -0.844327 -0
    outer loop
      vertex -1.75 -3.03109 15
      vertex -1.9975 -2.87402 0
      vertex -1.75 -3.03109 0
    endloop
  endfacet
  facet normal -0.463295 -0.886204 0
    outer loop
      vertex -1.75 -3.03109 0
      vertex -1.49023 -3.16689 15
      vertex -1.75 -3.03109 15
    endloop
  endfacet
  facet normal -0.463295 -0.886204 -0
    outer loop
      vertex -1.49023 -3.16689 15
      vertex -1.75 -3.03109 0
      vertex -1.49023 -3.16689 0
    endloop
  endfacet
  facet normal -0.0627911 -0.998027 0
    outer loop
      vertex -0.365849 -3.48083 0
      vertex -0.0732985 -3.49923 15
      vertex -0.365849 -3.48083 15
    endloop
  endfacet
  facet normal -0.0627911 -0.998027 -0
    outer loop
      vertex -0.0732985 -3.49923 15
      vertex -0.365849 -3.48083 0
      vertex -0.0732985 -3.49923 0
    endloop
  endfacet
  facet normal -0.876306 -0.481754 0
    outer loop
      vertex -2.99377 -1.81309 0
      vertex -3.13499 -1.55622 15
      vertex -3.13499 -1.55622 0
    endloop
  endfacet
  facet normal -0.876306 -0.481754 0
    outer loop
      vertex -3.13499 -1.55622 15
      vertex -2.99377 -1.81309 0
      vertex -2.99377 -1.81309 15
    endloop
  endfacet
  facet normal -0.913546 -0.406735 0
    outer loop
      vertex -3.13499 -1.55622 0
      vertex -3.25422 -1.28843 15
      vertex -3.25422 -1.28843 0
    endloop
  endfacet
  facet normal -0.913546 -0.406735 0
    outer loop
      vertex -3.25422 -1.28843 15
      vertex -3.13499 -1.55622 0
      vertex -3.13499 -1.55622 15
    endloop
  endfacet
  facet normal -0.996493 -0.0836782 0
    outer loop
      vertex -3.4724 -0.438665 0
      vertex -3.49693 -0.146564 15
      vertex -3.49693 -0.146564 0
    endloop
  endfacet
  facet normal -0.996493 -0.0836782 0
    outer loop
      vertex -3.49693 -0.146564 15
      vertex -3.4724 -0.438665 0
      vertex -3.4724 -0.438665 15
    endloop
  endfacet
  facet normal 0.187381 0.982287 -0
    outer loop
      vertex 0.799228 3.40753 0
      vertex 0.511291 3.46245 15
      vertex 0.799228 3.40753 15
    endloop
  endfacet
  facet normal 0.187381 0.982287 0
    outer loop
      vertex 0.511291 3.46245 15
      vertex 0.799228 3.40753 0
      vertex 0.511291 3.46245 0
    endloop
  endfacet
  facet normal 0.104529 0.994522 -0
    outer loop
      vertex 0.511291 3.46245 0
      vertex 0.219767 3.49309 15
      vertex 0.511291 3.46245 15
    endloop
  endfacet
  facet normal 0.104529 0.994522 0
    outer loop
      vertex 0.219767 3.49309 15
      vertex 0.511291 3.46245 0
      vertex 0.219767 3.49309 0
    endloop
  endfacet
  facet normal 0.500002 0.866024 -0
    outer loop
      vertex 1.87539 2.95515 0
      vertex 1.62154 3.10171 15
      vertex 1.87539 2.95515 15
    endloop
  endfacet
  facet normal 0.500002 0.866024 0
    outer loop
      vertex 1.62154 3.10171 15
      vertex 1.87539 2.95515 0
      vertex 1.62154 3.10171 0
    endloop
  endfacet
  facet normal -0.728969 0.684547 0
    outer loop
      vertex -2.64948 2.28697 0
      vertex -2.44882 2.50065 15
      vertex -2.44882 2.50065 0
    endloop
  endfacet
  facet normal -0.728969 0.684547 0
    outer loop
      vertex -2.44882 2.50065 15
      vertex -2.64948 2.28697 0
      vertex -2.64948 2.28697 15
    endloop
  endfacet
  facet normal -0.876306 0.481754 0
    outer loop
      vertex -3.13499 1.55622 0
      vertex -2.99377 1.81309 15
      vertex -2.99377 1.81309 0
    endloop
  endfacet
  facet normal -0.876306 0.481754 0
    outer loop
      vertex -2.99377 1.81309 15
      vertex -3.13499 1.55622 0
      vertex -3.13499 1.55622 15
    endloop
  endfacet
  facet normal -0.985996 0.166767 0
    outer loop
      vertex -3.4724 0.438665 0
      vertex -3.42352 0.727691 15
      vertex -3.42352 0.727691 0
    endloop
  endfacet
  facet normal -0.985996 0.166767 0
    outer loop
      vertex -3.42352 0.727691 15
      vertex -3.4724 0.438665 0
      vertex -3.4724 0.438665 15
    endloop
  endfacet
  facet normal -0.996493 0.0836782 0
    outer loop
      vertex -3.49693 0.146564 0
      vertex -3.4724 0.438665 15
      vertex -3.4724 0.438665 0
    endloop
  endfacet
  facet normal -0.996493 0.0836782 0
    outer loop
      vertex -3.4724 0.438665 15
      vertex -3.49693 0.146564 0
      vertex -3.49693 0.146564 15
    endloop
  endfacet
  facet normal -0.604598 0.79653 0
    outer loop
      vertex -1.9975 2.87402 0
      vertex -2.23098 2.6968 15
      vertex -1.9975 2.87402 15
    endloop
  endfacet
  facet normal -0.604598 0.79653 0
    outer loop
      vertex -2.23098 2.6968 15
      vertex -1.9975 2.87402 0
      vertex -2.23098 2.6968 0
    endloop
  endfacet
  facet normal -0.30902 0.951055 0
    outer loop
      vertex -0.941219 3.37107 0
      vertex -1.22 3.28049 15
      vertex -0.941219 3.37107 15
    endloop
  endfacet
  facet normal -0.30902 0.951055 0
    outer loop
      vertex -1.22 3.28049 15
      vertex -0.941219 3.37107 0
      vertex -1.22 3.28049 0
    endloop
  endfacet
  facet normal -0.228348 0.97358 0
    outer loop
      vertex -0.655834 3.438 0
      vertex -0.941219 3.37107 15
      vertex -0.655834 3.438 15
    endloop
  endfacet
  facet normal -0.228348 0.97358 0
    outer loop
      vertex -0.941219 3.37107 15
      vertex -0.655834 3.438 0
      vertex -0.941219 3.37107 0
    endloop
  endfacet
  facet normal 0.999123 -0.0418781 0
    outer loop
      vertex 3.48772 -0.292872 15
      vertex 3.5 0 0
      vertex 3.5 0 15
    endloop
  endfacet
  facet normal 0.999123 -0.0418781 0
    outer loop
      vertex 3.5 0 0
      vertex 3.48772 -0.292872 15
      vertex 3.48772 -0.292872 0
    endloop
  endfacet
  facet normal 0.187381 -0.982287 0
    outer loop
      vertex 0.511291 -3.46245 0
      vertex 0.799228 -3.40753 15
      vertex 0.511291 -3.46245 15
    endloop
  endfacet
  facet normal 0.187381 -0.982287 0
    outer loop
      vertex 0.799228 -3.40753 15
      vertex 0.511291 -3.46245 0
      vertex 0.799228 -3.40753 0
    endloop
  endfacet
  facet normal 0.425779 -0.904827 0
    outer loop
      vertex 1.3563 -3.22652 0
      vertex 1.62154 -3.10171 15
      vertex 1.3563 -3.22652 15
    endloop
  endfacet
  facet normal 0.425779 -0.904827 0
    outer loop
      vertex 1.62154 -3.10171 15
      vertex 1.3563 -3.22652 0
      vertex 1.62154 -3.10171 0
    endloop
  endfacet
  facet normal 0.500002 -0.866024 0
    outer loop
      vertex 1.62154 -3.10171 0
      vertex 1.87539 -2.95515 15
      vertex 1.62154 -3.10171 15
    endloop
  endfacet
  facet normal 0.500002 -0.866024 0
    outer loop
      vertex 1.87539 -2.95515 15
      vertex 1.62154 -3.10171 0
      vertex 1.87539 -2.95515 0
    endloop
  endfacet
  facet normal 0.929776 -0.368125 0
    outer loop
      vertex 3.19741 -1.42358 15
      vertex 3.30532 -1.15103 0
      vertex 3.30532 -1.15103 15
    endloop
  endfacet
  facet normal 0.929776 -0.368125 0
    outer loop
      vertex 3.30532 -1.15103 0
      vertex 3.19741 -1.42358 15
      vertex 3.19741 -1.42358 0
    endloop
  endfacet
  facet normal 0.978147 -0.207913 0
    outer loop
      vertex 3.39004 -0.870414 15
      vertex 3.45099 -0.58369 0
      vertex 3.45099 -0.58369 15
    endloop
  endfacet
  facet normal 0.978147 -0.207913 0
    outer loop
      vertex 3.45099 -0.58369 0
      vertex 3.39004 -0.870414 15
      vertex 3.39004 -0.870414 0
    endloop
  endfacet
  facet normal 0.992115 -0.125332 0
    outer loop
      vertex 3.45099 -0.58369 15
      vertex 3.48772 -0.292872 0
      vertex 3.48772 -0.292872 15
    endloop
  endfacet
  facet normal 0.992115 -0.125332 0
    outer loop
      vertex 3.48772 -0.292872 0
      vertex 3.45099 -0.58369 15
      vertex 3.45099 -0.58369 0
    endloop
  endfacet
  facet normal -0.604598 -0.79653 0
    outer loop
      vertex -2.23098 -2.6968 0
      vertex -1.9975 -2.87402 15
      vertex -2.23098 -2.6968 15
    endloop
  endfacet
  facet normal -0.604598 -0.79653 -0
    outer loop
      vertex -1.9975 -2.87402 15
      vertex -2.23098 -2.6968 0
      vertex -1.9975 -2.87402 0
    endloop
  endfacet
  facet normal -0.387515 -0.921863 0
    outer loop
      vertex -1.49023 -3.16689 0
      vertex -1.22 -3.28049 15
      vertex -1.49023 -3.16689 15
    endloop
  endfacet
  facet normal -0.387515 -0.921863 -0
    outer loop
      vertex -1.22 -3.28049 15
      vertex -1.49023 -3.16689 0
      vertex -1.22 -3.28049 0
    endloop
  endfacet
  facet normal -0.146085 -0.989272 0
    outer loop
      vertex -0.655834 -3.438 0
      vertex -0.365849 -3.48083 15
      vertex -0.655834 -3.438 15
    endloop
  endfacet
  facet normal -0.146085 -0.989272 -0
    outer loop
      vertex -0.365849 -3.48083 15
      vertex -0.655834 -3.438 0
      vertex -0.365849 -3.48083 0
    endloop
  endfacet
  facet normal -0.228348 -0.97358 0
    outer loop
      vertex -0.941219 -3.37107 0
      vertex -0.655834 -3.438 15
      vertex -0.941219 -3.37107 15
    endloop
  endfacet
  facet normal -0.228348 -0.97358 -0
    outer loop
      vertex -0.655834 -3.438 15
      vertex -0.941219 -3.37107 0
      vertex -0.655834 -3.438 0
    endloop
  endfacet
  facet normal -0.832922 -0.553391 0
    outer loop
      vertex -2.83156 -2.05725 0
      vertex -2.99377 -1.81309 15
      vertex -2.99377 -1.81309 0
    endloop
  endfacet
  facet normal -0.832922 -0.553391 0
    outer loop
      vertex -2.99377 -1.81309 15
      vertex -2.83156 -2.05725 0
      vertex -2.83156 -2.05725 15
    endloop
  endfacet
  facet normal -0.968583 -0.248692 0
    outer loop
      vertex -3.35062 -1.01161 0
      vertex -3.42352 -0.727691 15
      vertex -3.42352 -0.727691 0
    endloop
  endfacet
  facet normal -0.968583 -0.248692 0
    outer loop
      vertex -3.42352 -0.727691 15
      vertex -3.35062 -1.01161 0
      vertex -3.35062 -1.01161 15
    endloop
  endfacet
  facet normal -0.985996 -0.166767 0
    outer loop
      vertex -3.42352 -0.727691 0
      vertex -3.4724 -0.438665 15
      vertex -3.4724 -0.438665 0
    endloop
  endfacet
  facet normal -0.985996 -0.166767 0
    outer loop
      vertex -3.4724 -0.438665 15
      vertex -3.42352 -0.727691 0
      vertex -3.42352 -0.727691 15
    endloop
  endfacet
  facet normal 0.348572 -0.937282 0
    outer loop
      vertex 1.08156 -3.3287 0
      vertex 1.3563 -3.22652 15
      vertex 1.08156 -3.3287 15
    endloop
  endfacet
  facet normal 0.348572 -0.937282 0
    outer loop
      vertex 1.3563 -3.22652 15
      vertex 1.08156 -3.3287 0
      vertex 1.3563 -3.22652 0
    endloop
  endfacet
  facet normal 0.570712 -0.82115 0
    outer loop
      vertex 1.87539 -2.95515 0
      vertex 2.1161 -2.78785 15
      vertex 1.87539 -2.95515 15
    endloop
  endfacet
  facet normal 0.570712 -0.82115 0
    outer loop
      vertex 2.1161 -2.78785 15
      vertex 1.87539 -2.95515 0
      vertex 2.1161 -2.78785 0
    endloop
  endfacet
  facet normal -0.944376 -0.328866 0
    outer loop
      vertex -3.25422 -1.28843 0
      vertex -3.35062 -1.01161 15
      vertex -3.35062 -1.01161 0
    endloop
  endfacet
  facet normal -0.944376 -0.328866 0
    outer loop
      vertex -3.35062 -1.01161 15
      vertex -3.25422 -1.28843 0
      vertex -3.25422 -1.28843 15
    endloop
  endfacet
  facet normal -0.999123 -0.041875 0
    outer loop
      vertex 2.66 0 0
      vertex 2.65067 0.222583 15
      vertex 2.65067 0.222583 0
    endloop
  endfacet
  facet normal -0.999123 -0.041875 0
    outer loop
      vertex 2.65067 0.222583 15
      vertex 2.66 0 0
      vertex 2.66 0 15
    endloop
  endfacet
  facet normal 1 -0 0
    outer loop
      vertex -2.65767 -0.111389 15
      vertex -2.65767 0.111389 0
      vertex -2.65767 0.111389 15
    endloop
  endfacet
  facet normal 1 0 0
    outer loop
      vertex -2.65767 0.111389 0
      vertex -2.65767 -0.111389 15
      vertex -2.65767 -0.111389 0
    endloop
  endfacet
  facet normal -0.0209418 -0.999781 0
    outer loop
      vertex -0.055706 2.65942 0
      vertex 0.167023 2.65475 15
      vertex -0.055706 2.65942 15
    endloop
  endfacet
  facet normal -0.0209418 -0.999781 -0
    outer loop
      vertex 0.167023 2.65475 15
      vertex -0.055706 2.65942 0
      vertex 0.167023 2.65475 0
    endloop
  endfacet
  facet normal -0.699662 -0.714474 0
    outer loop
      vertex 1.77989 1.97676 0
      vertex 1.93906 1.8209 15
      vertex 1.77989 1.97676 15
    endloop
  endfacet
  facet normal -0.699662 -0.714474 -0
    outer loop
      vertex 1.93906 1.8209 15
      vertex 1.77989 1.97676 0
      vertex 1.93906 1.8209 0
    endloop
  endfacet
  facet normal 0.66913 -0.743145 0
    outer loop
      vertex -1.8611 1.9005 0
      vertex -1.69555 2.04956 15
      vertex -1.8611 1.9005 15
    endloop
  endfacet
  facet normal 0.66913 -0.743145 0
    outer loop
      vertex -1.69555 2.04956 15
      vertex -1.8611 1.9005 0
      vertex -1.69555 2.04956 0
    endloop
  endfacet
  facet normal 0.309015 -0.951057 0
    outer loop
      vertex -0.927201 2.49317 0
      vertex -0.715326 2.56201 15
      vertex -0.927201 2.49317 15
    endloop
  endfacet
  facet normal 0.309015 -0.951057 0
    outer loop
      vertex -0.715326 2.56201 15
      vertex -0.927201 2.49317 0
      vertex -0.715326 2.56201 0
    endloop
  endfacet
  facet normal 0.783692 0.62115 0
    outer loop
      vertex -2.01361 -1.7381 15
      vertex -2.15199 -1.56351 0
      vertex -2.15199 -1.56351 15
    endloop
  endfacet
  facet normal 0.783692 0.62115 0
    outer loop
      vertex -2.15199 -1.56351 0
      vertex -2.01361 -1.7381 15
      vertex -2.01361 -1.7381 0
    endloop
  endfacet
  facet normal -0.929776 -0.368125 0
    outer loop
      vertex 2.51204 0.874784 0
      vertex 2.43003 1.08192 15
      vertex 2.43003 1.08192 0
    endloop
  endfacet
  facet normal -0.929776 -0.368125 0
    outer loop
      vertex 2.43003 1.08192 15
      vertex 2.51204 0.874784 0
      vertex 2.51204 0.874784 15
    endloop
  endfacet
  facet normal -0.348573 -0.937282 0
    outer loop
      vertex 0.821984 2.52981 0
      vertex 1.03079 2.45216 15
      vertex 0.821984 2.52981 15
    endloop
  endfacet
  facet normal -0.348573 -0.937282 -0
    outer loop
      vertex 1.03079 2.45216 15
      vertex 0.821984 2.52981 0
      vertex 1.03079 2.45216 0
    endloop
  endfacet
  facet normal 0.876307 -0.481753 0
    outer loop
      vertex -2.38259 1.18273 15
      vertex -2.27527 1.37795 0
      vertex -2.27527 1.37795 15
    endloop
  endfacet
  facet normal 0.876307 -0.481753 0
    outer loop
      vertex -2.27527 1.37795 0
      vertex -2.38259 1.18273 15
      vertex -2.38259 1.18273 0
    endloop
  endfacet
  facet normal 0.832921 -0.553392 0
    outer loop
      vertex -2.27527 1.37795 15
      vertex -2.15199 1.56351 0
      vertex -2.15199 1.56351 15
    endloop
  endfacet
  facet normal 0.832921 -0.553392 0
    outer loop
      vertex -2.15199 1.56351 0
      vertex -2.27527 1.37795 15
      vertex -2.27527 1.37795 0
    endloop
  endfacet
  facet normal -0.895712 0.444635 0
    outer loop
      vertex 2.33098 -1.28146 0
      vertex 2.43003 -1.08192 15
      vertex 2.43003 -1.08192 0
    endloop
  endfacet
  facet normal -0.895712 0.444635 0
    outer loop
      vertex 2.43003 -1.08192 15
      vertex 2.33098 -1.28146 0
      vertex 2.33098 -1.28146 15
    endloop
  endfacet
  facet normal -0.268922 0.963162 0
    outer loop
      vertex 0.821984 -2.52981 0
      vertex 0.607413 -2.58972 15
      vertex 0.821984 -2.52981 15
    endloop
  endfacet
  facet normal -0.268922 0.963162 0
    outer loop
      vertex 0.607413 -2.58972 15
      vertex 0.821984 -2.52981 0
      vertex 0.607413 -2.58972 0
    endloop
  endfacet
  facet normal -0.699662 0.714474 0
    outer loop
      vertex 1.93906 -1.8209 0
      vertex 1.77989 -1.97676 15
      vertex 1.93906 -1.8209 15
    endloop
  endfacet
  facet normal -0.699662 0.714474 0
    outer loop
      vertex 1.77989 -1.97676 15
      vertex 1.93906 -1.8209 0
      vertex 1.77989 -1.97676 0
    endloop
  endfacet
  facet normal -0.992115 0.125334 0
    outer loop
      vertex 2.62275 -0.443604 0
      vertex 2.65067 -0.222583 15
      vertex 2.65067 -0.222583 0
    endloop
  endfacet
  facet normal -0.992115 0.125334 0
    outer loop
      vertex 2.65067 -0.222583 15
      vertex 2.62275 -0.443604 0
      vertex 2.62275 -0.443604 15
    endloop
  endfacet
  facet normal 0.309015 0.951057 -0
    outer loop
      vertex -0.715326 -2.56201 0
      vertex -0.927201 -2.49317 15
      vertex -0.715326 -2.56201 15
    endloop
  endfacet
  facet normal 0.309015 0.951057 0
    outer loop
      vertex -0.927201 -2.49317 15
      vertex -0.715326 -2.56201 0
      vertex -0.927201 -2.49317 0
    endloop
  endfacet
  facet normal 0.535826 0.844328 -0
    outer loop
      vertex -1.33 -2.30363 0
      vertex -1.5181 -2.18426 15
      vertex -1.33 -2.30363 15
    endloop
  endfacet
  facet normal 0.535826 0.844328 0
    outer loop
      vertex -1.5181 -2.18426 15
      vertex -1.33 -2.30363 0
      vertex -1.5181 -2.18426 0
    endloop
  endfacet
  facet normal -0.992115 -0.125334 0
    outer loop
      vertex 2.65067 0.222583 0
      vertex 2.62275 0.443604 15
      vertex 2.62275 0.443604 0
    endloop
  endfacet
  facet normal -0.992115 -0.125334 0
    outer loop
      vertex 2.62275 0.443604 15
      vertex 2.65067 0.222583 0
      vertex 2.65067 0.222583 15
    endloop
  endfacet
  facet normal -0.895712 -0.444635 0
    outer loop
      vertex 2.43003 1.08192 0
      vertex 2.33098 1.28146 15
      vertex 2.33098 1.28146 0
    endloop
  endfacet
  facet normal -0.895712 -0.444635 0
    outer loop
      vertex 2.33098 1.28146 15
      vertex 2.43003 1.08192 0
      vertex 2.43003 1.08192 15
    endloop
  endfacet
  facet normal -0.855364 -0.518027 0
    outer loop
      vertex 2.33098 1.28146 0
      vertex 2.21557 1.47202 15
      vertex 2.21557 1.47202 0
    endloop
  endfacet
  facet normal -0.855364 -0.518027 0
    outer loop
      vertex 2.21557 1.47202 15
      vertex 2.33098 1.28146 0
      vertex 2.33098 1.28146 15
    endloop
  endfacet
  facet normal -0.809016 -0.587787 0
    outer loop
      vertex 2.21557 1.47202 0
      vertex 2.08462 1.65225 15
      vertex 2.08462 1.65225 0
    endloop
  endfacet
  facet normal -0.809016 -0.587787 0
    outer loop
      vertex 2.08462 1.65225 15
      vertex 2.21557 1.47202 0
      vertex 2.21557 1.47202 15
    endloop
  endfacet
  facet normal -0.18738 -0.982288 0
    outer loop
      vertex 0.38858 2.63146 0
      vertex 0.607413 2.58972 15
      vertex 0.38858 2.63146 15
    endloop
  endfacet
  facet normal -0.18738 -0.982288 -0
    outer loop
      vertex 0.607413 2.58972 15
      vertex 0.38858 2.63146 0
      vertex 0.607413 2.58972 0
    endloop
  endfacet
  facet normal -0.637423 -0.770514 0
    outer loop
      vertex 1.60823 2.11877 0
      vertex 1.77989 1.97676 15
      vertex 1.60823 2.11877 15
    endloop
  endfacet
  facet normal -0.637423 -0.770514 -0
    outer loop
      vertex 1.77989 1.97676 15
      vertex 1.60823 2.11877 0
      vertex 1.77989 1.97676 0
    endloop
  endfacet
  facet normal -0.42578 -0.904827 0
    outer loop
      vertex 1.03079 2.45216 0
      vertex 1.23237 2.3573 15
      vertex 1.03079 2.45216 15
    endloop
  endfacet
  facet normal -0.42578 -0.904827 -0
    outer loop
      vertex 1.23237 2.3573 15
      vertex 1.03079 2.45216 0
      vertex 1.23237 2.3573 0
    endloop
  endfacet
  facet normal -0.570713 -0.821149 0
    outer loop
      vertex 1.4253 2.24591 0
      vertex 1.60823 2.11877 15
      vertex 1.4253 2.24591 15
    endloop
  endfacet
  facet normal -0.570713 -0.821149 -0
    outer loop
      vertex 1.60823 2.11877 15
      vertex 1.4253 2.24591 0
      vertex 1.60823 2.11877 0
    endloop
  endfacet
  facet normal 0.913546 -0.406735 0
    outer loop
      vertex -2.4732 0.979211 15
      vertex -2.38259 1.18273 0
      vertex -2.38259 1.18273 15
    endloop
  endfacet
  facet normal 0.913546 -0.406735 0
    outer loop
      vertex -2.38259 1.18273 0
      vertex -2.4732 0.979211 15
      vertex -2.4732 0.979211 0
    endloop
  endfacet
  facet normal 0.968583 -0.248689 0
    outer loop
      vertex -2.60187 0.553044 15
      vertex -2.54647 0.768825 0
      vertex -2.54647 0.768825 15
    endloop
  endfacet
  facet normal 0.968583 -0.248689 0
    outer loop
      vertex -2.54647 0.768825 0
      vertex -2.60187 0.553044 15
      vertex -2.60187 0.553044 0
    endloop
  endfacet
  facet normal 0.996493 -0.0836775 0
    outer loop
      vertex -2.65767 0.111389 15
      vertex -2.63902 0.333385 0
      vertex -2.63902 0.333385 15
    endloop
  endfacet
  facet normal 0.996493 -0.0836775 0
    outer loop
      vertex -2.63902 0.333385 0
      vertex -2.65767 0.111389 15
      vertex -2.65767 0.111389 0
    endloop
  endfacet
  facet normal 0.535826 -0.844328 0
    outer loop
      vertex -1.5181 2.18426 0
      vertex -1.33 2.30363 15
      vertex -1.5181 2.18426 15
    endloop
  endfacet
  facet normal 0.535826 -0.844328 0
    outer loop
      vertex -1.33 2.30363 15
      vertex -1.5181 2.18426 0
      vertex -1.33 2.30363 0
    endloop
  endfacet
  facet normal 0.0627908 -0.998027 0
    outer loop
      vertex -0.278046 2.64543 0
      vertex -0.055706 2.65942 15
      vertex -0.278046 2.64543 15
    endloop
  endfacet
  facet normal 0.0627908 -0.998027 0
    outer loop
      vertex -0.055706 2.65942 15
      vertex -0.278046 2.64543 0
      vertex -0.055706 2.65942 0
    endloop
  endfacet
  facet normal 0.228352 -0.973579 0
    outer loop
      vertex -0.715326 2.56201 0
      vertex -0.498434 2.61288 15
      vertex -0.715326 2.56201 15
    endloop
  endfacet
  facet normal 0.228352 -0.973579 0
    outer loop
      vertex -0.498434 2.61288 15
      vertex -0.715326 2.56201 0
      vertex -0.498434 2.61288 0
    endloop
  endfacet
  facet normal 0.146083 -0.989272 0
    outer loop
      vertex -0.498434 2.61288 0
      vertex -0.278046 2.64543 15
      vertex -0.498434 2.61288 15
    endloop
  endfacet
  facet normal 0.146083 -0.989272 0
    outer loop
      vertex -0.278046 2.64543 15
      vertex -0.498434 2.61288 0
      vertex -0.278046 2.64543 0
    endloop
  endfacet
  facet normal -0.999123 0.041875 0
    outer loop
      vertex 2.65067 -0.222583 0
      vertex 2.66 0 15
      vertex 2.66 0 0
    endloop
  endfacet
  facet normal -0.999123 0.041875 0
    outer loop
      vertex 2.66 0 15
      vertex 2.65067 -0.222583 0
      vertex 2.65067 -0.222583 15
    endloop
  endfacet
  facet normal -0.104529 0.994522 0
    outer loop
      vertex 0.38858 -2.63146 0
      vertex 0.167023 -2.65475 15
      vertex 0.38858 -2.63146 15
    endloop
  endfacet
  facet normal -0.104529 0.994522 0
    outer loop
      vertex 0.167023 -2.65475 15
      vertex 0.38858 -2.63146 0
      vertex 0.167023 -2.65475 0
    endloop
  endfacet
  facet normal -0.18738 0.982288 0
    outer loop
      vertex 0.607413 -2.58972 0
      vertex 0.38858 -2.63146 15
      vertex 0.607413 -2.58972 15
    endloop
  endfacet
  facet normal -0.18738 0.982288 0
    outer loop
      vertex 0.38858 -2.63146 15
      vertex 0.607413 -2.58972 0
      vertex 0.38858 -2.63146 0
    endloop
  endfacet
  facet normal -0.42578 0.904827 0
    outer loop
      vertex 1.23237 -2.3573 0
      vertex 1.03079 -2.45216 15
      vertex 1.23237 -2.3573 15
    endloop
  endfacet
  facet normal -0.42578 0.904827 0
    outer loop
      vertex 1.03079 -2.45216 15
      vertex 1.23237 -2.3573 0
      vertex 1.03079 -2.45216 0
    endloop
  endfacet
  facet normal -0.855364 0.518027 0
    outer loop
      vertex 2.21557 -1.47202 0
      vertex 2.33098 -1.28146 15
      vertex 2.33098 -1.28146 0
    endloop
  endfacet
  facet normal -0.855364 0.518027 0
    outer loop
      vertex 2.33098 -1.28146 15
      vertex 2.21557 -1.47202 0
      vertex 2.21557 -1.47202 15
    endloop
  endfacet
  facet normal 0.146083 0.989272 -0
    outer loop
      vertex -0.278046 -2.64543 0
      vertex -0.498434 -2.61288 15
      vertex -0.278046 -2.64543 15
    endloop
  endfacet
  facet normal 0.146083 0.989272 0
    outer loop
      vertex -0.498434 -2.61288 15
      vertex -0.278046 -2.64543 0
      vertex -0.498434 -2.61288 0
    endloop
  endfacet
  facet normal 0.66913 0.743145 -0
    outer loop
      vertex -1.69555 -2.04956 0
      vertex -1.8611 -1.9005 15
      vertex -1.69555 -2.04956 15
    endloop
  endfacet
  facet normal 0.66913 0.743145 0
    outer loop
      vertex -1.8611 -1.9005 15
      vertex -1.69555 -2.04956 0
      vertex -1.8611 -1.9005 0
    endloop
  endfacet
  facet normal 0.0627908 0.998027 -0
    outer loop
      vertex -0.055706 -2.65942 0
      vertex -0.278046 -2.64543 15
      vertex -0.055706 -2.65942 15
    endloop
  endfacet
  facet normal 0.0627908 0.998027 0
    outer loop
      vertex -0.278046 -2.64543 15
      vertex -0.055706 -2.65942 0
      vertex -0.278046 -2.64543 0
    endloop
  endfacet
  facet normal 0.604602 0.796528 -0
    outer loop
      vertex -1.5181 -2.18426 0
      vertex -1.69555 -2.04956 15
      vertex -1.5181 -2.18426 15
    endloop
  endfacet
  facet normal 0.604602 0.796528 0
    outer loop
      vertex -1.69555 -2.04956 15
      vertex -1.5181 -2.18426 0
      vertex -1.69555 -2.04956 0
    endloop
  endfacet
  facet normal 0.876307 0.481753 0
    outer loop
      vertex -2.27527 -1.37795 15
      vertex -2.38259 -1.18273 0
      vertex -2.38259 -1.18273 15
    endloop
  endfacet
  facet normal 0.876307 0.481753 0
    outer loop
      vertex -2.38259 -1.18273 0
      vertex -2.27527 -1.37795 15
      vertex -2.27527 -1.37795 0
    endloop
  endfacet
  facet normal 0.944375 0.32887 0
    outer loop
      vertex -2.4732 -0.979211 15
      vertex -2.54647 -0.768825 0
      vertex -2.54647 -0.768825 15
    endloop
  endfacet
  facet normal 0.944375 0.32887 0
    outer loop
      vertex -2.54647 -0.768825 0
      vertex -2.4732 -0.979211 15
      vertex -2.4732 -0.979211 0
    endloop
  endfacet
  facet normal -0.756997 -0.653418 0
    outer loop
      vertex 2.08462 1.65225 0
      vertex 1.93906 1.8209 15
      vertex 1.93906 1.8209 0
    endloop
  endfacet
  facet normal -0.756997 -0.653418 0
    outer loop
      vertex 1.93906 1.8209 15
      vertex 2.08462 1.65225 0
      vertex 2.08462 1.65225 15
    endloop
  endfacet
  facet normal -0.104529 -0.994522 0
    outer loop
      vertex 0.167023 2.65475 0
      vertex 0.38858 2.63146 15
      vertex 0.167023 2.65475 15
    endloop
  endfacet
  facet normal -0.104529 -0.994522 -0
    outer loop
      vertex 0.38858 2.63146 15
      vertex 0.167023 2.65475 0
      vertex 0.38858 2.63146 0
    endloop
  endfacet
  facet normal -0.268922 -0.963162 0
    outer loop
      vertex 0.607413 2.58972 0
      vertex 0.821984 2.52981 15
      vertex 0.607413 2.58972 15
    endloop
  endfacet
  facet normal -0.268922 -0.963162 -0
    outer loop
      vertex 0.821984 2.52981 15
      vertex 0.607413 2.58972 0
      vertex 0.821984 2.52981 0
    endloop
  endfacet
  facet normal -0.499999 -0.866026 0
    outer loop
      vertex 1.23237 2.3573 0
      vertex 1.4253 2.24591 15
      vertex 1.23237 2.3573 15
    endloop
  endfacet
  facet normal -0.499999 -0.866026 -0
    outer loop
      vertex 1.4253 2.24591 15
      vertex 1.23237 2.3573 0
      vertex 1.4253 2.24591 0
    endloop
  endfacet
  facet normal 0.728969 -0.684547 0
    outer loop
      vertex -2.01361 1.7381 15
      vertex -1.8611 1.9005 0
      vertex -1.8611 1.9005 15
    endloop
  endfacet
  facet normal 0.728969 -0.684547 0
    outer loop
      vertex -1.8611 1.9005 0
      vertex -2.01361 1.7381 15
      vertex -2.01361 1.7381 0
    endloop
  endfacet
  facet normal 0.783692 -0.62115 0
    outer loop
      vertex -2.15199 1.56351 15
      vertex -2.01361 1.7381 0
      vertex -2.01361 1.7381 15
    endloop
  endfacet
  facet normal 0.783692 -0.62115 0
    outer loop
      vertex -2.01361 1.7381 0
      vertex -2.15199 1.56351 15
      vertex -2.15199 1.56351 0
    endloop
  endfacet
  facet normal 0.944375 -0.32887 0
    outer loop
      vertex -2.54647 0.768825 15
      vertex -2.4732 0.979211 0
      vertex -2.4732 0.979211 15
    endloop
  endfacet
  facet normal 0.944375 -0.32887 0
    outer loop
      vertex -2.4732 0.979211 0
      vertex -2.54647 0.768825 15
      vertex -2.54647 0.768825 0
    endloop
  endfacet
  facet normal 0.985996 -0.166768 0
    outer loop
      vertex -2.63902 0.333385 15
      vertex -2.60187 0.553044 0
      vertex -2.60187 0.553044 15
    endloop
  endfacet
  facet normal 0.985996 -0.166768 0
    outer loop
      vertex -2.60187 0.553044 0
      vertex -2.63902 0.333385 15
      vertex -2.63902 0.333385 0
    endloop
  endfacet
  facet normal 0.387517 -0.921862 0
    outer loop
      vertex -1.13257 2.40684 0
      vertex -0.927201 2.49317 15
      vertex -1.13257 2.40684 15
    endloop
  endfacet
  facet normal 0.387517 -0.921862 0
    outer loop
      vertex -0.927201 2.49317 15
      vertex -1.13257 2.40684 0
      vertex -0.927201 2.49317 0
    endloop
  endfacet
  facet normal 0.604602 -0.796528 0
    outer loop
      vertex -1.69555 2.04956 0
      vertex -1.5181 2.18426 15
      vertex -1.69555 2.04956 15
    endloop
  endfacet
  facet normal 0.604602 -0.796528 0
    outer loop
      vertex -1.5181 2.18426 15
      vertex -1.69555 2.04956 0
      vertex -1.5181 2.18426 0
    endloop
  endfacet
  facet normal 0.463295 -0.886204 0
    outer loop
      vertex -1.33 2.30363 0
      vertex -1.13257 2.40684 15
      vertex -1.33 2.30363 15
    endloop
  endfacet
  facet normal 0.463295 -0.886204 0
    outer loop
      vertex -1.13257 2.40684 15
      vertex -1.33 2.30363 0
      vertex -1.13257 2.40684 0
    endloop
  endfacet
  facet normal -0.348573 0.937282 0
    outer loop
      vertex 1.03079 -2.45216 0
      vertex 0.821984 -2.52981 15
      vertex 1.03079 -2.45216 15
    endloop
  endfacet
  facet normal -0.348573 0.937282 0
    outer loop
      vertex 0.821984 -2.52981 15
      vertex 1.03079 -2.45216 0
      vertex 0.821984 -2.52981 0
    endloop
  endfacet
  facet normal -0.570713 0.821149 0
    outer loop
      vertex 1.60823 -2.11877 0
      vertex 1.4253 -2.24591 15
      vertex 1.60823 -2.11877 15
    endloop
  endfacet
  facet normal -0.570713 0.821149 0
    outer loop
      vertex 1.4253 -2.24591 15
      vertex 1.60823 -2.11877 0
      vertex 1.4253 -2.24591 0
    endloop
  endfacet
  facet normal -0.499999 0.866026 0
    outer loop
      vertex 1.4253 -2.24591 0
      vertex 1.23237 -2.3573 15
      vertex 1.4253 -2.24591 15
    endloop
  endfacet
  facet normal -0.499999 0.866026 0
    outer loop
      vertex 1.23237 -2.3573 15
      vertex 1.4253 -2.24591 0
      vertex 1.23237 -2.3573 0
    endloop
  endfacet
  facet normal -0.756997 0.653418 0
    outer loop
      vertex 1.93906 -1.8209 0
      vertex 2.08462 -1.65225 15
      vertex 2.08462 -1.65225 0
    endloop
  endfacet
  facet normal -0.756997 0.653418 0
    outer loop
      vertex 2.08462 -1.65225 15
      vertex 1.93906 -1.8209 0
      vertex 1.93906 -1.8209 15
    endloop
  endfacet
  facet normal -0.929776 0.368125 0
    outer loop
      vertex 2.43003 -1.08192 0
      vertex 2.51204 -0.874784 15
      vertex 2.51204 -0.874784 0
    endloop
  endfacet
  facet normal -0.929776 0.368125 0
    outer loop
      vertex 2.51204 -0.874784 15
      vertex 2.43003 -1.08192 0
      vertex 2.43003 -1.08192 15
    endloop
  endfacet
  facet normal -0.957321 0.289028 0
    outer loop
      vertex 2.51204 -0.874784 0
      vertex 2.57643 -0.661514 15
      vertex 2.57643 -0.661514 0
    endloop
  endfacet
  facet normal -0.957321 0.289028 0
    outer loop
      vertex 2.57643 -0.661514 15
      vertex 2.51204 -0.874784 0
      vertex 2.51204 -0.874784 15
    endloop
  endfacet
  facet normal 0.228352 0.973579 -0
    outer loop
      vertex -0.498434 -2.61288 0
      vertex -0.715326 -2.56201 15
      vertex -0.498434 -2.61288 15
    endloop
  endfacet
  facet normal 0.228352 0.973579 0
    outer loop
      vertex -0.715326 -2.56201 15
      vertex -0.498434 -2.61288 0
      vertex -0.715326 -2.56201 0
    endloop
  endfacet
  facet normal 0.463295 0.886204 -0
    outer loop
      vertex -1.13257 -2.40684 0
      vertex -1.33 -2.30363 15
      vertex -1.13257 -2.40684 15
    endloop
  endfacet
  facet normal 0.463295 0.886204 0
    outer loop
      vertex -1.33 -2.30363 15
      vertex -1.13257 -2.40684 0
      vertex -1.33 -2.30363 0
    endloop
  endfacet
  facet normal 0.728969 0.684547 0
    outer loop
      vertex -1.8611 -1.9005 15
      vertex -2.01361 -1.7381 0
      vertex -2.01361 -1.7381 15
    endloop
  endfacet
  facet normal 0.728969 0.684547 0
    outer loop
      vertex -2.01361 -1.7381 0
      vertex -1.8611 -1.9005 15
      vertex -1.8611 -1.9005 0
    endloop
  endfacet
  facet normal 0.832921 0.553392 0
    outer loop
      vertex -2.15199 -1.56351 15
      vertex -2.27527 -1.37795 0
      vertex -2.27527 -1.37795 15
    endloop
  endfacet
  facet normal 0.832921 0.553392 0
    outer loop
      vertex -2.27527 -1.37795 0
      vertex -2.15199 -1.56351 15
      vertex -2.15199 -1.56351 0
    endloop
  endfacet
  facet normal 0.968583 0.248689 0
    outer loop
      vertex -2.54647 -0.768825 15
      vertex -2.60187 -0.553044 0
      vertex -2.60187 -0.553044 15
    endloop
  endfacet
  facet normal 0.968583 0.248689 0
    outer loop
      vertex -2.60187 -0.553044 0
      vertex -2.54647 -0.768825 15
      vertex -2.54647 -0.768825 0
    endloop
  endfacet
  facet normal 0.996493 0.0836775 0
    outer loop
      vertex -2.63902 -0.333385 15
      vertex -2.65767 -0.111389 0
      vertex -2.65767 -0.111389 15
    endloop
  endfacet
  facet normal 0.996493 0.0836775 0
    outer loop
      vertex -2.65767 -0.111389 0
      vertex -2.63902 -0.333385 15
      vertex -2.63902 -0.333385 0
    endloop
  endfacet
  facet normal 0.913546 0.406735 0
    outer loop
      vertex -2.38259 -1.18273 15
      vertex -2.4732 -0.979211 0
      vertex -2.4732 -0.979211 15
    endloop
  endfacet
  facet normal 0.913546 0.406735 0
    outer loop
      vertex -2.4732 -0.979211 0
      vertex -2.38259 -1.18273 15
      vertex -2.38259 -1.18273 0
    endloop
  endfacet
  facet normal -0.957321 -0.289028 0
    outer loop
      vertex 2.57643 0.661514 0
      vertex 2.51204 0.874784 15
      vertex 2.51204 0.874784 0
    endloop
  endfacet
  facet normal -0.957321 -0.289028 0
    outer loop
      vertex 2.51204 0.874784 15
      vertex 2.57643 0.661514 0
      vertex 2.57643 0.661514 15
    endloop
  endfacet
  facet normal -0.978147 -0.207915 0
    outer loop
      vertex 2.62275 0.443604 0
      vertex 2.57643 0.661514 15
      vertex 2.57643 0.661514 0
    endloop
  endfacet
  facet normal -0.978147 -0.207915 0
    outer loop
      vertex 2.57643 0.661514 15
      vertex 2.62275 0.443604 0
      vertex 2.62275 0.443604 15
    endloop
  endfacet
  facet normal -0.637423 0.770514 0
    outer loop
      vertex 1.77989 -1.97676 0
      vertex 1.60823 -2.11877 15
      vertex 1.77989 -1.97676 15
    endloop
  endfacet
  facet normal -0.637423 0.770514 0
    outer loop
      vertex 1.60823 -2.11877 15
      vertex 1.77989 -1.97676 0
      vertex 1.60823 -2.11877 0
    endloop
  endfacet
  facet normal -0.809016 0.587787 0
    outer loop
      vertex 2.08462 -1.65225 0
      vertex 2.21557 -1.47202 15
      vertex 2.21557 -1.47202 0
    endloop
  endfacet
  facet normal -0.809016 0.587787 0
    outer loop
      vertex 2.21557 -1.47202 15
      vertex 2.08462 -1.65225 0
      vertex 2.08462 -1.65225 15
    endloop
  endfacet
  facet normal -0.978147 0.207915 0
    outer loop
      vertex 2.57643 -0.661514 0
      vertex 2.62275 -0.443604 15
      vertex 2.62275 -0.443604 0
    endloop
  endfacet
  facet normal -0.978147 0.207915 0
    outer loop
      vertex 2.62275 -0.443604 15
      vertex 2.57643 -0.661514 0
      vertex 2.57643 -0.661514 15
    endloop
  endfacet
  facet normal -0.0209418 0.999781 0
    outer loop
      vertex 0.167023 -2.65475 0
      vertex -0.055706 -2.65942 15
      vertex 0.167023 -2.65475 15
    endloop
  endfacet
  facet normal -0.0209418 0.999781 0
    outer loop
      vertex -0.055706 -2.65942 15
      vertex 0.167023 -2.65475 0
      vertex -0.055706 -2.65942 0
    endloop
  endfacet
  facet normal 0.387517 0.921862 -0
    outer loop
      vertex -0.927201 -2.49317 0
      vertex -1.13257 -2.40684 15
      vertex -0.927201 -2.49317 15
    endloop
  endfacet
  facet normal 0.387517 0.921862 0
    outer loop
      vertex -1.13257 -2.40684 15
      vertex -0.927201 -2.49317 0
      vertex -1.13257 -2.40684 0
    endloop
  endfacet
  facet normal 0.985996 0.166768 0
    outer loop
      vertex -2.60187 -0.553044 15
      vertex -2.63902 -0.333385 0
      vertex -2.63902 -0.333385 15
    endloop
  endfacet
  facet normal 0.985996 0.166768 0
    outer loop
      vertex -2.63902 -0.333385 0
      vertex -2.60187 -0.553044 15
      vertex -2.60187 -0.553044 0
    endloop
  endfacet
endsolid OpenSCAD_Model
