G04 DipTrace 3.3.1.0*
G04 BottomAssy.gbr*
%MOMM*%
G04 #@! TF.FileFunction,Drawing,Bot*
G04 #@! TF.Part,Single*
%ADD10C,0.25*%
%ADD11C,0.14*%
G04 #@! TA.AperFunction,ComponentPad*
%ADD20C,2.5*%
%ADD24R,1.6X1.6*%
%ADD25C,1.6*%
%ADD28R,1.6X1.8*%
G04 #@! TA.AperFunction,ComponentPad*
%ADD29R,2.0X2.0*%
%ADD30C,2.0*%
%ADD32C,2.0*%
%ADD52C,0.19608*%
%FSLAX35Y35*%
G04*
G71*
G90*
G75*
G01*
G04 BotAssy*
%LPD*%
D20*
X5984750Y2936750D3*
Y3436750D3*
X6000627Y7889750D3*
Y8389750D3*
D24*
X6334000Y4873500D3*
D25*
X6588000D3*
D24*
X6334000Y4238500D3*
D25*
X6588000D3*
X6474873Y4444330D2*
D10*
Y4604170D1*
X6493793Y4444330D2*
Y4604170D1*
Y4444330D2*
X6433953D1*
X6493793Y4604170D2*
X6433953D1*
D28*
X6603873Y4524250D3*
X6323873D3*
D24*
X6349877Y9826500D3*
D25*
X6603877D3*
D24*
X6349877Y9191500D3*
D25*
X6603877D3*
X6490750Y9397330D2*
D10*
Y9557170D1*
X6509670Y9397330D2*
Y9557170D1*
Y9397330D2*
X6449830D1*
X6509670Y9557170D2*
X6449830D1*
D28*
X6619750Y9477250D3*
X6339750D3*
D29*
X1571500Y3413000D3*
D32*
Y3667000D3*
Y3921000D3*
Y4175000D3*
Y4429000D3*
D29*
X1587373Y8366000D3*
D32*
Y8620000D3*
Y8874000D3*
Y9128000D3*
Y9382000D3*
X3286000Y5445000D3*
X3032000D3*
X2778000D3*
X2524000D3*
X2270000D3*
X3301877Y10398000D3*
X3047877D3*
X2793877D3*
X2539877D3*
X2285877D3*
D29*
X2397000Y1349250D3*
D32*
X2651000D3*
X2905000D3*
X3159000D3*
D29*
X2412877Y6302250D3*
D32*
X2666877D3*
X2920877D3*
X3174877D3*
X1571500Y1889000D3*
Y2143000D3*
Y2397000D3*
Y2651000D3*
Y2905000D3*
X1317500Y1889000D3*
Y2143000D3*
Y2397000D3*
Y2651000D3*
Y2905000D3*
X1587373Y6842000D3*
Y7096000D3*
Y7350000D3*
Y7604000D3*
Y7858000D3*
X1333377Y6842000D3*
Y7096000D3*
Y7350000D3*
Y7604000D3*
Y7858000D3*
D29*
X5889500Y1635000D3*
D32*
Y1889000D3*
Y2143000D3*
Y2397000D3*
D29*
X5905373Y6588000D3*
D32*
Y6842000D3*
Y7096000D3*
Y7350000D3*
D30*
X5889500Y5413250D3*
Y5159250D3*
X4048000Y5413250D3*
Y5159250D3*
X5889500Y4317850D3*
Y4079750D3*
X4048000Y4333750D3*
Y4079750D3*
D29*
X5254620Y1635000D3*
D32*
X3984620Y3159000D3*
Y2905000D3*
Y2397000D3*
Y2143000D3*
Y1889000D3*
Y1635000D3*
X5254620Y3413000D3*
D29*
Y3159000D3*
D32*
Y2905000D3*
Y2651000D3*
Y2143000D3*
Y1889000D3*
X3984620Y3413000D3*
X5254620Y2397000D3*
X3984620Y2651000D3*
D30*
X5905377Y10366250D3*
Y10112250D3*
X4063873Y10366250D3*
Y10112250D3*
X5905377Y9270850D3*
Y9032750D3*
X4063873Y9286750D3*
Y9032750D3*
D29*
X5270497Y6588000D3*
D32*
X4000493Y8112000D3*
Y7858000D3*
Y7350000D3*
Y7096000D3*
Y6842000D3*
Y6588000D3*
X5270497Y8366000D3*
D29*
Y8112000D3*
D32*
Y7858000D3*
Y7604000D3*
Y7096000D3*
Y6842000D3*
X4000493Y8366000D3*
X5270497Y7350000D3*
X4000493Y7604000D3*
X3555877Y6842000D3*
Y7096000D3*
Y7350000D3*
Y7604000D3*
Y7858000D3*
Y8112000D3*
Y8366000D3*
Y8620000D3*
Y8874000D3*
Y9128000D3*
Y9382000D3*
X3174877Y6842000D3*
X2920877D3*
X2666877D3*
X3174877Y9921750D3*
X2920877D3*
X2412877D3*
X2666877D3*
X3428877D3*
X2031877Y7350000D3*
Y7604000D3*
Y7858000D3*
Y8112000D3*
Y8366000D3*
Y8620000D3*
Y8874000D3*
Y9128000D3*
X2412877Y6842000D3*
X3540000Y1889000D3*
Y2143000D3*
Y2397000D3*
Y2651000D3*
Y2905000D3*
Y3159000D3*
Y3413000D3*
Y3667000D3*
Y3921000D3*
Y4175000D3*
Y4429000D3*
X3159000Y1889000D3*
X2905000D3*
X2651000D3*
X3159000Y4968750D3*
X2905000D3*
X2397000D3*
X2651000D3*
X3413000D3*
X2016000Y2397000D3*
Y2651000D3*
Y2905000D3*
Y3159000D3*
Y3413000D3*
Y3667000D3*
Y3921000D3*
Y4175000D3*
X2397000Y1889000D3*
X6088210Y4540840D2*
D52*
X6076137Y4546876D1*
X6063923Y4559090D1*
X6057887Y4571163D1*
Y4595449D1*
X6063923Y4607663D1*
X6076137Y4619736D1*
X6088210Y4625913D1*
X6106460Y4631949D1*
X6136923D1*
X6155033Y4625913D1*
X6167246Y4619736D1*
X6179320Y4607663D1*
X6185496Y4595449D1*
Y4571163D1*
X6179320Y4559090D1*
X6167246Y4546876D1*
X6155033Y4540840D1*
X6058027Y4489411D2*
Y4422728D1*
X6106600Y4459088D1*
Y4440838D1*
X6112637Y4428765D1*
X6118673Y4422728D1*
X6136923Y4416551D1*
X6148996D1*
X6167246Y4422728D1*
X6179460Y4434801D1*
X6185496Y4453051D1*
X6185497Y4471301D1*
X6179460Y4489411D1*
X6173283Y4495447D1*
X6161210Y4501624D1*
X6104087Y9490751D2*
X6092014Y9496788D1*
X6079800Y9509001D1*
X6073764Y9521074D1*
Y9545361D1*
X6079800Y9557574D1*
X6092014Y9569647D1*
X6104087Y9575824D1*
X6122337Y9581861D1*
X6152800D1*
X6170910Y9575824D1*
X6183123Y9569647D1*
X6195196Y9557574D1*
X6201373Y9545361D1*
Y9521074D1*
X6195196Y9509001D1*
X6183123Y9496788D1*
X6170910Y9490751D1*
X6092013Y9378676D2*
X6079940Y9384713D1*
X6073904Y9402963D1*
Y9415036D1*
X6079940Y9433286D1*
X6098190Y9445499D1*
X6128514Y9451536D1*
X6158837D1*
X6183123Y9445499D1*
X6195337Y9433286D1*
X6201373Y9415036D1*
Y9408999D1*
X6195337Y9390890D1*
X6183123Y9378676D1*
X6164873Y9372640D1*
X6158836D1*
X6140586Y9378676D1*
X6128513Y9390890D1*
X6122477Y9408999D1*
Y9415036D1*
X6128514Y9433286D1*
X6140587Y9445499D1*
X6158837Y9451536D1*
X1000000Y10779000D2*
D11*
X6842000D1*
Y1000000D1*
X1000000D1*
Y10779000D1*
X1158750Y5921250D2*
X3857500D1*
Y5857750D1*
X1158750D1*
Y5921250D1*
X4016250D2*
X6683250D1*
Y5857750D1*
X4016250D1*
Y5921250D1*
X1174623Y5492625D2*
G02X1174623Y5492625I174625J0D01*
G01*
X6318123D2*
G02X6318123Y5492625I174625J0D01*
G01*
X1174623Y1301625D2*
G02X1174623Y1301625I174625J0D01*
G01*
X6318123D2*
G02X6318123Y1301625I174625J0D01*
G01*
X1174623Y10445625D2*
G02X1174623Y10445625I174625J0D01*
G01*
X6318123D2*
G02X6318123Y10445625I174625J0D01*
G01*
X1174623Y6254625D2*
G02X1174623Y6254625I174625J0D01*
G01*
X6318123D2*
G02X6318123Y6254625I174625J0D01*
G01*
M02*
