M48
METRIC,0000.00
T01C0.9
T02C1.0
T03C1.2
%
T01
X+006334Y+004874
X+006588Y+004874
X+006588Y+004238
X+006334Y+004238
X+006350Y+009192
X+006604Y+009192
X+006604Y+009826
X+006350Y+009826
T02
X+001572Y+003413
X+001572Y+003667
X+001572Y+003921
X+001572Y+004175
X+001572Y+004429
X+002016Y+004175
X+002016Y+003921
X+002016Y+003667
X+002016Y+003413
X+002016Y+003159
X+002016Y+002905
X+002016Y+002651
X+002016Y+002397
X+001572Y+002397
X+001572Y+002143
X+001318Y+002143
X+001318Y+002397
X+001318Y+002651
X+001572Y+002651
X+001572Y+002905
X+001318Y+002905
X+001318Y+001889
X+001572Y+001889
X+002397Y+001889
X+002651Y+001889
X+002905Y+001889
X+003159Y+001889
X+003540Y+001889
X+003540Y+002143
X+003540Y+002397
X+003540Y+002651
X+003540Y+002905
X+003540Y+003159
X+003540Y+003413
X+003540Y+003667
X+003540Y+003921
X+003540Y+004175
X+003540Y+004429
X+004048Y+004334
X+004048Y+004080
X+003985Y+003413
X+003985Y+003159
X+003985Y+002905
X+003985Y+002651
X+003985Y+002397
X+003985Y+002143
X+003985Y+001889
X+003985Y+001635
X+003159Y+001349
X+002905Y+001349
X+002651Y+001349
X+002397Y+001349
X+005255Y+001635
X+005255Y+001889
X+005255Y+002143
X+005255Y+002397
X+005255Y+002651
X+005255Y+002905
X+005255Y+003159
X+005255Y+003413
X+005890Y+004080
X+005890Y+004318
X+005890Y+005159
X+005890Y+005413
X+005905Y+006588
X+005905Y+006842
X+005905Y+007096
X+005905Y+007350
X+005270Y+007350
X+005270Y+007096
X+005270Y+006842
X+005270Y+006588
X+005270Y+007604
X+005270Y+007858
X+005270Y+008112
X+005270Y+008366
X+005905Y+009033
X+005905Y+009271
X+005905Y+010112
X+005905Y+010366
X+004064Y+010366
X+004064Y+010112
X+003429Y+009922
X+003175Y+009922
X+002921Y+009922
X+002667Y+009922
X+002413Y+009922
X+002286Y+010398
X+002540Y+010398
X+002794Y+010398
X+003048Y+010398
X+003302Y+010398
X+003556Y+009382
X+003556Y+009128
X+003556Y+008874
X+003556Y+008620
X+003556Y+008366
X+003556Y+008112
X+003556Y+007858
X+003556Y+007604
X+003556Y+007350
X+003556Y+007096
X+003556Y+006842
X+003175Y+006842
X+002921Y+006842
X+002667Y+006842
X+002413Y+006842
X+002413Y+006302
X+002667Y+006302
X+002921Y+006302
X+003175Y+006302
X+003286Y+005445
X+003032Y+005445
X+002778Y+005445
X+002524Y+005445
X+002270Y+005445
X+002397Y+004969
X+002651Y+004969
X+002905Y+004969
X+003159Y+004969
X+003413Y+004969
X+004048Y+005159
X+004048Y+005413
X+004000Y+006588
X+004000Y+006842
X+004000Y+007096
X+004000Y+007350
X+004000Y+007604
X+004000Y+007858
X+004000Y+008112
X+004000Y+008366
X+004064Y+009033
X+004064Y+009287
X+002032Y+009128
X+002032Y+008874
X+002032Y+008620
X+002032Y+008366
X+002032Y+008112
X+002032Y+007858
X+002032Y+007604
X+002032Y+007350
X+001587Y+007350
X+001333Y+007350
X+001333Y+007604
X+001587Y+007604
X+001587Y+007858
X+001333Y+007858
X+001587Y+008366
X+001587Y+008620
X+001587Y+008874
X+001587Y+009128
X+001587Y+009382
X+001587Y+007096
X+001333Y+007096
X+001333Y+006842
X+001587Y+006842
X+005889Y+002397
X+005889Y+002143
X+005889Y+001889
X+005889Y+001635
T03
X+005985Y+002937
X+005985Y+003437
X+006001Y+007890
X+006001Y+008390
T00
M30
