G04 DipTrace 3.3.1.0*
G04 Top.gbr*
%MOMM*%
G04 #@! TF.FileFunction,Copper,L1,Top*
G04 #@! TF.Part,Single*
%ADD21C,2.5*%
%ADD25C,1.6*%
%ADD30C,2.0*%
%FSLAX35Y35*%
G04*
G71*
G90*
G75*
G01*
G04 Top_Plane*
%LPD*%
D21*
X5984750Y2936750D3*
Y3436750D3*
X6000627Y7889750D3*
Y8389750D3*
D25*
X6334000Y4873500D3*
X6588000D3*
X6334000Y4238500D3*
X6588000D3*
X6349877Y9826500D3*
X6603877D3*
X6349877Y9191500D3*
X6603877D3*
D30*
X1571500Y3413000D3*
Y3667000D3*
Y3921000D3*
Y4175000D3*
Y4429000D3*
X1587373Y8366000D3*
Y8620000D3*
Y8874000D3*
Y9128000D3*
Y9382000D3*
X3286000Y5445000D3*
X3032000D3*
X2778000D3*
X2524000D3*
X2270000D3*
X3301877Y10398000D3*
X3047877D3*
X2793877D3*
X2539877D3*
X2285877D3*
X2397000Y1349250D3*
X2651000D3*
X2905000D3*
X3159000D3*
X2412877Y6302250D3*
X2666877D3*
X2920877D3*
X3174877D3*
X1571500Y1889000D3*
Y2143000D3*
Y2397000D3*
Y2651000D3*
Y2905000D3*
X1317500Y1889000D3*
Y2143000D3*
Y2397000D3*
Y2651000D3*
Y2905000D3*
X1587373Y6842000D3*
Y7096000D3*
Y7350000D3*
Y7604000D3*
Y7858000D3*
X1333377Y6842000D3*
Y7096000D3*
Y7350000D3*
Y7604000D3*
Y7858000D3*
X5889500Y1635000D3*
Y1889000D3*
Y2143000D3*
Y2397000D3*
X5905373Y6588000D3*
Y6842000D3*
Y7096000D3*
Y7350000D3*
X5889500Y5413250D3*
Y5159250D3*
X4048000Y5413250D3*
Y5159250D3*
X5889500Y4317850D3*
Y4079750D3*
X4048000Y4333750D3*
Y4079750D3*
X5254620Y1635000D3*
X3984620Y3159000D3*
Y2905000D3*
Y2397000D3*
Y2143000D3*
Y1889000D3*
Y1635000D3*
X5254620Y3413000D3*
Y3159000D3*
Y2905000D3*
Y2651000D3*
Y2143000D3*
Y1889000D3*
X3984620Y3413000D3*
X5254620Y2397000D3*
X3984620Y2651000D3*
X5905377Y10366250D3*
Y10112250D3*
X4063873Y10366250D3*
Y10112250D3*
X5905377Y9270850D3*
Y9032750D3*
X4063873Y9286750D3*
Y9032750D3*
X5270497Y6588000D3*
X4000493Y8112000D3*
Y7858000D3*
Y7350000D3*
Y7096000D3*
Y6842000D3*
Y6588000D3*
X5270497Y8366000D3*
Y8112000D3*
Y7858000D3*
Y7604000D3*
Y7096000D3*
Y6842000D3*
X4000493Y8366000D3*
X5270497Y7350000D3*
X4000493Y7604000D3*
X3555877Y6842000D3*
Y7096000D3*
Y7350000D3*
Y7604000D3*
Y7858000D3*
Y8112000D3*
Y8366000D3*
Y8620000D3*
Y8874000D3*
Y9128000D3*
Y9382000D3*
X3174877Y6842000D3*
X2920877D3*
X2666877D3*
X3174877Y9921750D3*
X2920877D3*
X2412877D3*
X2666877D3*
X3428877D3*
X2031877Y7350000D3*
Y7604000D3*
Y7858000D3*
Y8112000D3*
Y8366000D3*
Y8620000D3*
Y8874000D3*
Y9128000D3*
X2412877Y6842000D3*
X3540000Y1889000D3*
Y2143000D3*
Y2397000D3*
Y2651000D3*
Y2905000D3*
Y3159000D3*
Y3413000D3*
Y3667000D3*
Y3921000D3*
Y4175000D3*
Y4429000D3*
X3159000Y1889000D3*
X2905000D3*
X2651000D3*
X3159000Y4968750D3*
X2905000D3*
X2397000D3*
X2651000D3*
X3413000D3*
X2016000Y2397000D3*
Y2651000D3*
Y2905000D3*
Y3159000D3*
Y3413000D3*
Y3667000D3*
Y3921000D3*
Y4175000D3*
X2397000Y1889000D3*
M02*
