G04 DipTrace 3.3.1.0*
G04 TopMask.gbr*
%MOMM*%
G04 #@! TF.FileFunction,Soldermask,Top*
G04 #@! TF.Part,Single*
%ADD10C,0.25*%
%ADD22C,2.7*%
%ADD26C,1.8*%
%ADD31C,2.2*%
%ADD35C,0.2*%
%ADD40C,0.20067*%
%ADD59C,0.11111*%
%FSLAX35Y35*%
G04*
G71*
G90*
G75*
G01*
G04 TopMask*
%LPD*%
D22*
X5984750Y2936750D3*
Y3436750D3*
X6000627Y7889750D3*
Y8389750D3*
D26*
X6334000Y4873500D3*
X6588000D3*
X6334000Y4238500D3*
X6588000D3*
X6349877Y9826500D3*
X6603877D3*
X6349877Y9191500D3*
X6603877D3*
D31*
X1571500Y3413000D3*
Y3667000D3*
Y3921000D3*
Y4175000D3*
Y4429000D3*
X1587373Y8366000D3*
Y8620000D3*
Y8874000D3*
Y9128000D3*
Y9382000D3*
X3286000Y5445000D3*
X3032000D3*
X2778000D3*
X2524000D3*
X2270000D3*
X3301877Y10398000D3*
X3047877D3*
X2793877D3*
X2539877D3*
X2285877D3*
X2397000Y1349250D3*
X2651000D3*
X2905000D3*
X3159000D3*
X2412877Y6302250D3*
X2666877D3*
X2920877D3*
X3174877D3*
X1571500Y1889000D3*
Y2143000D3*
Y2397000D3*
Y2651000D3*
Y2905000D3*
X1317500Y1889000D3*
Y2143000D3*
Y2397000D3*
Y2651000D3*
Y2905000D3*
X1587373Y6842000D3*
Y7096000D3*
Y7350000D3*
Y7604000D3*
Y7858000D3*
X1333377Y6842000D3*
Y7096000D3*
Y7350000D3*
Y7604000D3*
Y7858000D3*
X5889500Y1635000D3*
Y1889000D3*
Y2143000D3*
Y2397000D3*
X5905373Y6588000D3*
Y6842000D3*
Y7096000D3*
Y7350000D3*
X5889500Y5413250D3*
Y5159250D3*
X4048000Y5413250D3*
Y5159250D3*
X5889500Y4317850D3*
Y4079750D3*
X4048000Y4333750D3*
Y4079750D3*
X5254620Y1635000D3*
X3984620Y3159000D3*
Y2905000D3*
Y2397000D3*
Y2143000D3*
Y1889000D3*
Y1635000D3*
X5254620Y3413000D3*
Y3159000D3*
Y2905000D3*
Y2651000D3*
Y2143000D3*
Y1889000D3*
X3984620Y3413000D3*
X5254620Y2397000D3*
X3984620Y2651000D3*
X5905377Y10366250D3*
Y10112250D3*
X4063873Y10366250D3*
Y10112250D3*
X5905377Y9270850D3*
Y9032750D3*
X4063873Y9286750D3*
Y9032750D3*
X5270497Y6588000D3*
X4000493Y8112000D3*
Y7858000D3*
Y7350000D3*
Y7096000D3*
Y6842000D3*
Y6588000D3*
X5270497Y8366000D3*
Y8112000D3*
Y7858000D3*
Y7604000D3*
Y7096000D3*
Y6842000D3*
X4000493Y8366000D3*
X5270497Y7350000D3*
X4000493Y7604000D3*
X2460531Y7143736D2*
D10*
X3111529D1*
Y7556680D1*
X2460531D1*
Y7143736D1*
D31*
X3555877Y6842000D3*
Y7096000D3*
Y7350000D3*
Y7604000D3*
Y7858000D3*
Y8112000D3*
Y8366000D3*
Y8620000D3*
Y8874000D3*
Y9128000D3*
Y9382000D3*
D40*
Y9636000D3*
D31*
X3174877Y6842000D3*
X2920877D3*
X2666877D3*
D35*
X2158877Y9921750D3*
D31*
X3174877D3*
X2920877D3*
X2412877D3*
X2666877D3*
X3428877D3*
D40*
X2031877Y6842000D3*
Y7096000D3*
D31*
Y7350000D3*
Y7604000D3*
Y7858000D3*
Y8112000D3*
Y8366000D3*
Y8620000D3*
Y8874000D3*
Y9128000D3*
D40*
Y9382000D3*
D35*
Y9636000D3*
D31*
X2412877Y6842000D3*
X2444654Y2190736D2*
D10*
X3095652D1*
Y2603680D1*
X2444654D1*
Y2190736D1*
D31*
X3540000Y1889000D3*
Y2143000D3*
Y2397000D3*
Y2651000D3*
Y2905000D3*
Y3159000D3*
Y3413000D3*
Y3667000D3*
Y3921000D3*
Y4175000D3*
Y4429000D3*
D40*
Y4683000D3*
D31*
X3159000Y1889000D3*
X2905000D3*
X2651000D3*
D35*
X2143000Y4968750D3*
D31*
X3159000D3*
X2905000D3*
X2397000D3*
X2651000D3*
X3413000D3*
D40*
X2016000Y1889000D3*
Y2143000D3*
D31*
Y2397000D3*
Y2651000D3*
Y2905000D3*
Y3159000D3*
Y3413000D3*
Y3667000D3*
Y3921000D3*
Y4175000D3*
D40*
Y4429000D3*
D35*
Y4683000D3*
D31*
X2397000Y1889000D3*
X3393997Y6799852D2*
D59*
X3391526Y6804737D1*
X3384282Y6812037D1*
X3435270D1*
X3384282Y6848859D2*
X3386697Y6841559D1*
X3393997Y6836674D1*
X3406126Y6834259D1*
X3413426D1*
X3425556Y6836674D1*
X3432856Y6841559D1*
X3435270Y6848859D1*
Y6853688D1*
X3432856Y6860988D1*
X3425556Y6865818D1*
X3413426Y6868288D1*
X3406126Y6868289D1*
X3393997Y6865818D1*
X3386697Y6860989D1*
X3384282Y6853689D1*
Y6848859D1*
X3393997Y6865818D2*
X3425556Y6836674D1*
X3393997Y7069660D2*
X3391526Y7074545D1*
X3384282Y7081845D1*
X3435270D1*
X3393997Y7104067D2*
X3391526Y7108953D1*
X3384282Y7116253D1*
X3435270D1*
X3393997Y7307884D2*
X3391526Y7312769D1*
X3384282Y7320069D1*
X3435270D1*
X3396412Y7344762D2*
X3393997D1*
X3389112Y7347177D1*
X3386697Y7349591D1*
X3384282Y7354477D1*
Y7364191D1*
X3386697Y7369021D1*
X3389112Y7371435D1*
X3393997Y7373906D1*
X3398826D1*
X3403712Y7371435D1*
X3410956Y7366606D1*
X3435270Y7342291D1*
Y7376320D1*
X3393997Y7561900D2*
X3391526Y7566785D1*
X3384282Y7574085D1*
X3435270D1*
X3384282Y7601193D2*
X3384283Y7627866D1*
X3403712Y7613322D1*
Y7620622D1*
X3406126Y7625451D1*
X3408541Y7627866D1*
X3415841Y7630336D1*
X3420670D1*
X3427970Y7627866D1*
X3432856Y7623036D1*
X3435270Y7615736D1*
Y7608436D1*
X3432856Y7601193D1*
X3430385Y7598778D1*
X3425556Y7596307D1*
X3435270Y7839038D2*
X3384226Y7819553D1*
X3435270Y7800124D1*
X3418255Y7807424D2*
X3418256Y7831738D1*
X3384283Y7875861D2*
X3386697Y7868561D1*
X3393997Y7863675D1*
X3406126Y7861261D1*
X3413426Y7861260D1*
X3425556Y7863675D1*
X3432856Y7868560D1*
X3435270Y7875860D1*
Y7880690D1*
X3432855Y7887990D1*
X3425556Y7892819D1*
X3413426Y7895290D1*
X3406126D1*
X3393997Y7892819D1*
X3386697Y7887990D1*
X3384282Y7880690D1*
X3384283Y7875861D1*
X3393997Y7892819D2*
X3425556Y7863675D1*
X3435270Y8109182D2*
X3384226Y8089697D1*
X3435270Y8070268D1*
X3418255Y8077568D2*
X3418256Y8101882D1*
X3393997Y8131405D2*
X3391526Y8136290D1*
X3384283Y8143590D1*
X3435270D1*
Y8362862D2*
X3384226Y8343377D1*
X3435270Y8323948D1*
X3418255Y8331248D2*
X3418256Y8355562D1*
X3396412Y8387555D2*
X3393997D1*
X3389112Y8389970D1*
X3386697Y8392385D1*
X3384283Y8397270D1*
X3384282Y8406985D1*
X3386697Y8411814D1*
X3389112Y8414228D1*
X3393997Y8416699D1*
X3398826D1*
X3403712Y8414228D1*
X3410956Y8409399D1*
X3435270Y8385084D1*
Y8419114D1*
Y8616878D2*
X3384226Y8597393D1*
X3435270Y8577964D1*
X3418255Y8585264D2*
X3418256Y8609578D1*
X3384283Y8643986D2*
X3384282Y8670659D1*
X3403712Y8656115D1*
Y8663415D1*
X3406126Y8668244D1*
X3408541Y8670659D1*
X3415841Y8673130D1*
X3420670D1*
X3427970Y8670659D1*
X3432855Y8665830D1*
X3435270Y8658530D1*
Y8651230D1*
X3432856Y8643986D1*
X3430385Y8641571D1*
X3425556Y8639100D1*
X1983498Y9884488D2*
X1978669Y9882073D1*
X1973784Y9877188D1*
X1971369Y9872358D1*
Y9862644D1*
X1973784Y9857758D1*
X1978669Y9852929D1*
X1983498Y9850459D1*
X1990798Y9848044D1*
X2002984D1*
X2010227Y9850459D1*
X2015113Y9852929D1*
X2019942Y9857758D1*
X2022413Y9862644D1*
Y9872358D1*
X2019942Y9877188D1*
X2015113Y9882073D1*
X2010228Y9884488D1*
X2002984D1*
Y9872358D1*
X1971369Y9940739D2*
X2022413D1*
X1971369Y9906710D1*
X2022413D1*
X1971369Y9962961D2*
X2022413D1*
Y9979976D1*
X2019942Y9987276D1*
X2015113Y9992161D1*
X2010227Y9994576D1*
X2002984Y9996990D1*
X1990798D1*
X1983498Y9994576D1*
X1978669Y9992161D1*
X1973784Y9987276D1*
X1971369Y9979976D1*
Y9962961D1*
X3384226Y8800396D2*
X3435270Y8819825D1*
X3384226Y8839254D1*
X3396356Y8897920D2*
X3391526Y8895506D1*
X3386641Y8890620D1*
X3384226Y8885791D1*
Y8876076D1*
X3386641Y8871191D1*
X3391526Y8866362D1*
X3396356Y8863891D1*
X3403656Y8861476D1*
X3415841D1*
X3423085Y8863891D1*
X3427970Y8866362D1*
X3432799Y8871191D1*
X3435270Y8876076D1*
Y8885791D1*
X3432799Y8890620D1*
X3427970Y8895505D1*
X3423085Y8897920D1*
X3396356Y8956586D2*
X3391526Y8954172D1*
X3386641Y8949286D1*
X3384226Y8944457D1*
Y8934742D1*
X3386641Y8929857D1*
X3391526Y8925028D1*
X3396356Y8922557D1*
X3403656Y8920142D1*
X3415841D1*
X3423085Y8922557D1*
X3427970Y8925028D1*
X3432799Y8929857D1*
X3435270Y8934742D1*
Y8944457D1*
X3432799Y8949286D1*
X3427970Y8954172D1*
X3423085Y8956586D1*
X3408541Y9054076D2*
Y9075920D1*
X3406070Y9083220D1*
X3403656Y9085690D1*
X3398826Y9088105D1*
X3393941D1*
X3389112Y9085690D1*
X3386641Y9083220D1*
X3384226Y9075920D1*
Y9054076D1*
X3435270D1*
X3408541Y9071090D2*
X3435270Y9088105D1*
X3391526Y9144356D2*
X3386641Y9139527D1*
X3384226Y9132227D1*
Y9122513D1*
X3386641Y9115213D1*
X3391526Y9110327D1*
X3396356D1*
X3401241Y9112798D1*
X3403656Y9115213D1*
X3406070Y9120042D1*
X3410956Y9134642D1*
X3413370Y9139527D1*
X3415841Y9141942D1*
X3420670Y9144356D1*
X3427970D1*
X3432799Y9139527D1*
X3435270Y9132227D1*
Y9122512D1*
X3432799Y9115212D1*
X3427970Y9110327D1*
X3384226Y9183593D2*
X3435270D1*
X3384226Y9166579D2*
Y9200608D1*
X3396356Y9344536D2*
X3391526Y9342121D1*
X3386641Y9337236D1*
X3384226Y9332406D1*
Y9322692D1*
X3386641Y9317806D1*
X3391526Y9312977D1*
X3396355Y9310507D1*
X3403655Y9308092D1*
X3415841D1*
X3423085Y9310507D1*
X3427970Y9312977D1*
X3432799Y9317806D1*
X3435270Y9322692D1*
Y9332406D1*
X3432799Y9337236D1*
X3427970Y9342121D1*
X3423085Y9344536D1*
X3415841D1*
Y9332406D1*
X3384226Y9400787D2*
X3435270D1*
X3384226Y9366758D1*
X3435270D1*
X3384226Y9423009D2*
X3435270D1*
Y9440024D1*
X3432799Y9447324D1*
X3427970Y9452209D1*
X3423085Y9454624D1*
X3415841Y9457038D1*
X3403656D1*
X3396356Y9454624D1*
X3391526Y9452209D1*
X3386641Y9447324D1*
X3384226Y9440024D1*
Y9423009D1*
X3408541Y9562108D2*
Y9583952D1*
X3406070Y9591252D1*
X3403656Y9593722D1*
X3398826Y9596137D1*
X3393941D1*
X3389112Y9593722D1*
X3386641Y9591252D1*
X3384226Y9583952D1*
Y9562108D1*
X3435270D1*
X3408541Y9579122D2*
X3435270Y9596137D1*
Y9657274D2*
X3384226Y9637788D1*
X3435270Y9618359D1*
X3418256Y9625659D2*
Y9649974D1*
X3384226Y9679496D2*
X3435270Y9691681D1*
X3384226Y9703811D1*
X3435270Y9715940D1*
X3384226Y9728125D1*
X2612854Y9779911D2*
X2610439Y9784740D1*
X2605554Y9789625D1*
X2600724Y9792040D1*
X2591010D1*
X2586124Y9789625D1*
X2581295Y9784740D1*
X2578824Y9779911D1*
X2576410Y9772611D1*
Y9760425D1*
X2578824Y9753182D1*
X2581295Y9748296D1*
X2586124Y9743467D1*
X2591010Y9740996D1*
X2600724D1*
X2605554Y9743467D1*
X2610439Y9748296D1*
X2612854Y9753182D1*
Y9760425D1*
X2600724D1*
X2669105Y9792040D2*
Y9740996D1*
X2635076Y9792040D1*
Y9740996D1*
X2691327Y9792040D2*
Y9740996D1*
X2708342D1*
X2715642Y9743467D1*
X2720527Y9748296D1*
X2722942Y9753182D1*
X2725356Y9760425D1*
Y9772611D1*
X2722942Y9779911D1*
X2720527Y9784740D1*
X2715642Y9789625D1*
X2708342Y9792040D1*
X2691327D1*
X2170407Y9054076D2*
Y9075920D1*
X2167936Y9083220D1*
X2165522Y9085690D1*
X2160693Y9088105D1*
X2155807D1*
X2150978Y9085690D1*
X2148507Y9083220D1*
X2146093Y9075920D1*
Y9054076D1*
X2197136D1*
X2170407Y9071090D2*
X2197136Y9088105D1*
X2153393Y9144356D2*
X2148507Y9139527D1*
X2146093Y9132227D1*
Y9122513D1*
X2148507Y9115213D1*
X2153393Y9110327D1*
X2158222D1*
X2163107Y9112798D1*
X2165522Y9115213D1*
X2167937Y9120042D1*
X2172822Y9134642D1*
X2175236Y9139527D1*
X2177707Y9141942D1*
X2182536Y9144356D1*
X2189836D1*
X2194666Y9139527D1*
X2197136Y9132227D1*
Y9122512D1*
X2194666Y9115212D1*
X2189836Y9110327D1*
X2146093Y9183593D2*
X2197136D1*
X2146093Y9166579D2*
Y9200608D1*
X2334595Y9796072D2*
X2354024Y9745028D1*
X2373454Y9796072D1*
X2432120Y9783943D2*
X2429705Y9788772D1*
X2424820Y9793657D1*
X2419990Y9796072D1*
X2410276D1*
X2405390Y9793657D1*
X2400561Y9788772D1*
X2398090Y9783943D1*
X2395676Y9776643D1*
Y9764457D1*
X2398090Y9757214D1*
X2400561Y9752328D1*
X2405390Y9747499D1*
X2410276Y9745028D1*
X2419990D1*
X2424820Y9747499D1*
X2429705Y9752328D1*
X2432120Y9757214D1*
X2490786Y9783943D2*
X2488371Y9788772D1*
X2483486Y9793657D1*
X2478657Y9796072D1*
X2468942D1*
X2464057Y9793657D1*
X2459227Y9788772D1*
X2456757Y9783943D1*
X2454342Y9776643D1*
Y9764457D1*
X2456757Y9757214D1*
X2459227Y9752328D1*
X2464057Y9747499D1*
X2468942Y9745028D1*
X2478657D1*
X2483486Y9747499D1*
X2488371Y9752328D1*
X2490786Y9757214D1*
X2170407Y9323884D2*
Y9345728D1*
X2167936Y9353028D1*
X2165522Y9355498D1*
X2160693Y9357913D1*
X2155807D1*
X2150978Y9355498D1*
X2148507Y9353028D1*
X2146093Y9345728D1*
Y9323884D1*
X2197136D1*
X2170407Y9340898D2*
X2197136Y9357913D1*
X2146093Y9380135D2*
X2197136Y9414164D1*
X2146093D2*
X2197136Y9380135D1*
X2155863Y9436387D2*
X2153393Y9441272D1*
X2146149Y9448572D1*
X2197136D1*
X2146093Y9579122D2*
X2197137D1*
X2146093Y9562108D2*
Y9596137D1*
Y9618359D2*
X2197136Y9652388D1*
X2146093D2*
X2197136Y9618359D1*
X2146149Y9689211D2*
X2148563Y9681911D1*
X2155863Y9677025D1*
X2167993Y9674611D1*
X2175293D1*
X2187422Y9677025D1*
X2194722Y9681910D1*
X2197136Y9689210D1*
Y9694040D1*
X2194722Y9701340D1*
X2187422Y9706169D1*
X2175293Y9708640D1*
X2167993D1*
X2155863Y9706169D1*
X2148563Y9701340D1*
X2146149Y9694040D1*
Y9689211D1*
X2155863Y9706169D2*
X2187422Y9677025D1*
X2858407Y9771757D2*
X2880251D1*
X2887551Y9774228D1*
X2890022Y9776643D1*
X2892436Y9781472D1*
Y9786357D1*
X2890022Y9791187D1*
X2887551Y9793657D1*
X2880251Y9796072D1*
X2858407D1*
Y9745028D1*
X2875422Y9771757D2*
X2892436Y9745028D1*
X2914659Y9796072D2*
X2948688Y9745028D1*
Y9796072D2*
X2914659Y9745028D1*
X2970910Y9786301D2*
X2975795Y9788772D1*
X2983095Y9796016D1*
Y9745028D1*
X3134278Y9790696D2*
Y9739652D1*
X3117264Y9790696D2*
X3151293D1*
X3173515D2*
X3207544Y9739652D1*
Y9790696D2*
X3173515Y9739652D1*
X3244366Y9790640D2*
X3237066Y9788225D1*
X3232181Y9780925D1*
X3229766Y9768796D1*
Y9761496D1*
X3232181Y9749367D1*
X3237066Y9742067D1*
X3244366Y9739652D1*
X3249196D1*
X3256496Y9742067D1*
X3261325Y9749367D1*
X3263796Y9761496D1*
Y9768796D1*
X3261325Y9780925D1*
X3256496Y9788225D1*
X3249196Y9790640D1*
X3244366D1*
X3261325Y9780925D2*
X3232181Y9749367D1*
X3511233Y9816124D2*
X3562276D1*
X3562277Y9833138D1*
X3559806Y9840438D1*
X3554977Y9845324D1*
X3550091Y9847738D1*
X3542847Y9850153D1*
X3530662D1*
X3523362Y9847738D1*
X3518533Y9845324D1*
X3513647Y9840438D1*
X3511233Y9833138D1*
Y9816124D1*
Y9889390D2*
X3562277D1*
X3511233Y9872375D2*
Y9906404D1*
X3535547Y9928627D2*
Y9950470D1*
X3533077Y9957770D1*
X3530662Y9960241D1*
X3525833Y9962656D1*
X3520947D1*
X3516118Y9960241D1*
X3513647Y9957770D1*
X3511233Y9950470D1*
Y9928627D1*
X3562277Y9928626D1*
X3535547Y9945641D2*
X3562277Y9962656D1*
X2163107Y6863050D2*
X2170407Y6860580D1*
X2175293Y6855750D1*
X2177707Y6848450D1*
Y6846036D1*
X2175293Y6838736D1*
X2170407Y6833907D1*
X2163107Y6831436D1*
X2160693D1*
X2153393Y6833907D1*
X2148563Y6838736D1*
X2146149Y6846036D1*
Y6848450D1*
X2148563Y6855750D1*
X2153393Y6860580D1*
X2163107Y6863050D1*
X2175293D1*
X2187422Y6860580D1*
X2194722Y6855750D1*
X2197137Y6848450D1*
Y6843621D1*
X2194722Y6836321D1*
X2189836Y6833907D1*
X2146149Y7081789D2*
X2148563Y7074545D1*
X2153393Y7072075D1*
X2158278D1*
X2163107Y7074545D1*
X2165578Y7079374D1*
X2167993Y7089089D1*
X2170407Y7096389D1*
X2175293Y7101218D1*
X2180122Y7103633D1*
X2187422D1*
X2192251Y7101218D1*
X2194722Y7098804D1*
X2197137Y7091504D1*
Y7081789D1*
X2194722Y7074545D1*
X2192251Y7072075D1*
X2187422Y7069660D1*
X2180122D1*
X2175293Y7072075D1*
X2170407Y7076960D1*
X2167993Y7084204D1*
X2165578Y7093918D1*
X2163107Y7098804D1*
X2158278Y7101218D1*
X2153393D1*
X2148563Y7098804D1*
X2146149Y7091504D1*
Y7081789D1*
X2197136Y7349518D2*
X2146149Y7373833D1*
Y7339804D1*
X2153393Y7622964D2*
X2148563Y7620549D1*
X2146149Y7613249D1*
Y7608420D1*
X2148563Y7601120D1*
X2155863Y7596235D1*
X2167993Y7593820D1*
X2180122D1*
X2189836Y7596235D1*
X2194722Y7601120D1*
X2197137Y7608420D1*
Y7610834D1*
X2194722Y7618078D1*
X2189837Y7622964D1*
X2182537Y7625378D1*
X2180122D1*
X2172822Y7622964D1*
X2167993Y7618078D1*
X2165578Y7610834D1*
Y7608420D1*
X2167993Y7601120D1*
X2172822Y7596235D1*
X2180122Y7593820D1*
X2146149Y7860852D2*
Y7836593D1*
X2167993Y7834179D1*
X2165578Y7836593D1*
X2163107Y7843893D1*
Y7851137D1*
X2165578Y7858437D1*
X2170407Y7863322D1*
X2177707Y7865737D1*
X2182537D1*
X2189837Y7863322D1*
X2194722Y7858437D1*
X2197137Y7851137D1*
Y7843893D1*
X2194722Y7836593D1*
X2192251Y7834179D1*
X2187422Y7831708D1*
X2197137Y8110374D2*
X2146149D1*
X2180122Y8086060D1*
Y8122504D1*
X2146149Y8329169D2*
Y8355842D1*
X2165578Y8341298D1*
Y8348598D1*
X2167993Y8353428D1*
X2170407Y8355842D1*
X2177707Y8358313D1*
X2182537D1*
X2189837Y8355842D1*
X2194722Y8351013D1*
X2197137Y8343713D1*
Y8336413D1*
X2194722Y8329169D1*
X2192251Y8326755D1*
X2187422Y8324284D1*
X2158278Y8580771D2*
X2155863D1*
X2150978Y8583185D1*
X2148563Y8585600D1*
X2146149Y8590485D1*
Y8600200D1*
X2148563Y8605029D1*
X2150978Y8607444D1*
X2155863Y8609914D1*
X2160693D1*
X2165578Y8607444D1*
X2172822Y8602614D1*
X2197136Y8578300D1*
Y8612329D1*
X2158222Y8821048D2*
X2153393Y8818633D1*
X2148507Y8813748D1*
X2146093Y8808918D1*
Y8799204D1*
X2148507Y8794318D1*
X2153393Y8789489D1*
X2158222Y8787019D1*
X2165522Y8784604D1*
X2177707D1*
X2184951Y8787019D1*
X2189836Y8789489D1*
X2194666Y8794318D1*
X2197137Y8799204D1*
Y8808918D1*
X2194666Y8813748D1*
X2189837Y8818633D1*
X2184951Y8821048D1*
X2177707D1*
Y8808918D1*
X2146093Y8877299D2*
X2197136D1*
X2146093Y8843270D1*
X2197136D1*
X2146093Y8899521D2*
X2197136D1*
Y8916536D1*
X2194666Y8923836D1*
X2189836Y8928721D1*
X2184951Y8931136D1*
X2177707Y8933550D1*
X2165522D1*
X2158222Y8931136D1*
X2153393Y8928721D1*
X2148507Y8923836D1*
X2146093Y8916536D1*
Y8899521D1*
X2913287Y6966644D2*
X2893802Y7017688D1*
X2874373Y6966644D1*
X2881673Y6983659D2*
X2905987D1*
X2964653Y7010388D2*
X2962239Y7015217D1*
X2954939Y7017632D1*
X2950109D1*
X2942809Y7015217D1*
X2937924Y7007917D1*
X2935509Y6995788D1*
Y6983659D1*
X2937924Y6973944D1*
X2942809Y6969059D1*
X2950109Y6966644D1*
X2952524D1*
X2959768Y6969059D1*
X2964653Y6973944D1*
X2967068Y6981244D1*
Y6983659D1*
X2964653Y6990959D1*
X2959768Y6995788D1*
X2952524Y6998203D1*
X2950109D1*
X2942809Y6995788D1*
X2937924Y6990959D1*
X2935509Y6983659D1*
X3181831Y6967652D2*
X3162345Y7018696D1*
X3142916Y6967652D1*
X3150216Y6984667D2*
X3174531D1*
X3213767Y6967652D2*
X3238082Y7018640D1*
X3204053D1*
X2405261Y6966644D2*
X2385776Y7017688D1*
X2366347Y6966644D1*
X2373647Y6983659D2*
X2397961D1*
X2451798Y6966644D2*
Y7017632D1*
X2427484Y6983659D1*
X2463927D1*
X2673984Y6967652D2*
X2654499Y7018696D1*
X2635070Y6967652D1*
X2642370Y6984667D2*
X2666684D1*
X2725350Y7018640D2*
X2701092D1*
X2698677Y6996796D1*
X2701092Y6999211D1*
X2708392Y7001681D1*
X2715636D1*
X2722936Y6999211D1*
X2727821Y6994381D1*
X2730236Y6987081D1*
Y6982252D1*
X2727821Y6974952D1*
X2722936Y6970067D1*
X2715636Y6967652D1*
X2708392D1*
X2701092Y6970067D1*
X2698677Y6972538D1*
X2696206Y6977367D1*
X3378120Y1846852D2*
X3375650Y1851737D1*
X3368406Y1859037D1*
X3419394D1*
X3368406Y1895859D2*
X3370820Y1888559D1*
X3378120Y1883674D1*
X3390250Y1881259D1*
X3397550D1*
X3409679Y1883674D1*
X3416979Y1888559D1*
X3419393Y1895859D1*
Y1900688D1*
X3416979Y1907988D1*
X3409679Y1912818D1*
X3397550Y1915288D1*
X3390250Y1915289D1*
X3378120Y1912818D1*
X3370820Y1907989D1*
X3368406Y1900689D1*
Y1895859D1*
X3378120Y1912818D2*
X3409679Y1883674D1*
X3378120Y2116660D2*
X3375650Y2121545D1*
X3368406Y2128845D1*
X3419394D1*
X3378120Y2151067D2*
X3375650Y2155953D1*
X3368406Y2163253D1*
X3419393D1*
X3378120Y2354884D2*
X3375650Y2359769D1*
X3368406Y2367069D1*
X3419394D1*
X3380535Y2391762D2*
X3378120D1*
X3373235Y2394177D1*
X3370820Y2396591D1*
X3368406Y2401477D1*
Y2411191D1*
X3370820Y2416021D1*
X3373235Y2418435D1*
X3378120Y2420906D1*
X3382950D1*
X3387835Y2418435D1*
X3395079Y2413606D1*
X3419394Y2389291D1*
X3419393Y2423320D1*
X3378120Y2608900D2*
X3375650Y2613785D1*
X3368406Y2621085D1*
X3419394D1*
X3368406Y2648193D2*
Y2674866D1*
X3387835Y2660322D1*
Y2667622D1*
X3390250Y2672451D1*
X3392664Y2674866D1*
X3399964Y2677336D1*
X3404793D1*
X3412093Y2674866D1*
X3416979Y2670036D1*
X3419393Y2662736D1*
Y2655436D1*
X3416979Y2648193D1*
X3414508Y2645778D1*
X3409679Y2643307D1*
X3419393Y2886038D2*
X3368350Y2866553D1*
X3419393Y2847124D1*
X3402379Y2854424D2*
Y2878738D1*
X3368406Y2922861D2*
X3370820Y2915561D1*
X3378120Y2910675D1*
X3390250Y2908261D1*
X3397550Y2908260D1*
X3409679Y2910675D1*
X3416979Y2915560D1*
X3419393Y2922860D1*
Y2927690D1*
X3416979Y2934990D1*
X3409679Y2939819D1*
X3397550Y2942290D1*
X3390250D1*
X3378120Y2939819D1*
X3370820Y2934990D1*
X3368406Y2927690D1*
Y2922861D1*
X3378120Y2939819D2*
X3409679Y2910675D1*
X3419393Y3156182D2*
X3368350Y3136697D1*
X3419393Y3117268D1*
X3402379Y3124568D2*
Y3148882D1*
X3378120Y3178405D2*
X3375650Y3183290D1*
X3368406Y3190590D1*
X3419393D1*
Y3409862D2*
X3368350Y3390377D1*
X3419393Y3370948D1*
X3402379Y3378248D2*
Y3402562D1*
X3380535Y3434555D2*
X3378120D1*
X3373235Y3436970D1*
X3370820Y3439385D1*
X3368406Y3444270D1*
Y3453985D1*
X3370820Y3458814D1*
X3373235Y3461228D1*
X3378120Y3463699D1*
X3382950D1*
X3387835Y3461228D1*
X3395079Y3456399D1*
X3419393Y3432084D1*
Y3466114D1*
Y3663878D2*
X3368350Y3644393D1*
X3419393Y3624964D1*
X3402379Y3632264D2*
Y3656578D1*
X3368406Y3690986D2*
Y3717659D1*
X3387835Y3703115D1*
Y3710415D1*
X3390250Y3715244D1*
X3392664Y3717659D1*
X3399964Y3720130D1*
X3404793D1*
X3412093Y3717659D1*
X3416979Y3712830D1*
X3419393Y3705530D1*
Y3698230D1*
X3416979Y3690986D1*
X3414508Y3688571D1*
X3409679Y3686100D1*
X1967622Y4931488D2*
X1962792Y4929073D1*
X1957907Y4924188D1*
X1955492Y4919358D1*
Y4909644D1*
X1957907Y4904758D1*
X1962792Y4899929D1*
X1967621Y4897459D1*
X1974921Y4895044D1*
X1987107D1*
X1994351Y4897459D1*
X1999236Y4899929D1*
X2004065Y4904758D1*
X2006536Y4909644D1*
Y4919358D1*
X2004065Y4924188D1*
X1999236Y4929073D1*
X1994351Y4931488D1*
X1987107D1*
Y4919358D1*
X1955492Y4987739D2*
X2006536D1*
X1955492Y4953710D1*
X2006536D1*
X1955492Y5009961D2*
X2006536D1*
Y5026976D1*
X2004065Y5034276D1*
X1999236Y5039161D1*
X1994351Y5041576D1*
X1987107Y5043990D1*
X1974922D1*
X1967622Y5041576D1*
X1962792Y5039161D1*
X1957907Y5034276D1*
X1955492Y5026976D1*
Y5009961D1*
X3368350Y3847396D2*
X3419394Y3866825D1*
X3368350Y3886254D1*
X3380479Y3944920D2*
X3375650Y3942506D1*
X3370764Y3937620D1*
X3368350Y3932791D1*
Y3923076D1*
X3370764Y3918191D1*
X3375650Y3913362D1*
X3380479Y3910891D1*
X3387779Y3908476D1*
X3399964D1*
X3407208Y3910891D1*
X3412093Y3913362D1*
X3416923Y3918191D1*
X3419393Y3923076D1*
Y3932791D1*
X3416923Y3937620D1*
X3412093Y3942505D1*
X3407208Y3944920D1*
X3380479Y4003586D2*
X3375650Y4001172D1*
X3370764Y3996286D1*
X3368350Y3991457D1*
Y3981742D1*
X3370764Y3976857D1*
X3375650Y3972028D1*
X3380479Y3969557D1*
X3387779Y3967142D1*
X3399964D1*
X3407208Y3969557D1*
X3412093Y3972028D1*
X3416923Y3976857D1*
X3419393Y3981742D1*
Y3991457D1*
X3416923Y3996286D1*
X3412093Y4001172D1*
X3407208Y4003586D1*
X3392664Y4101076D2*
Y4122920D1*
X3390194Y4130220D1*
X3387779Y4132690D1*
X3382950Y4135105D1*
X3378064D1*
X3373235Y4132690D1*
X3370764Y4130220D1*
X3368350Y4122920D1*
Y4101076D1*
X3419393D1*
X3392664Y4118090D2*
X3419394Y4135105D1*
X3375650Y4191356D2*
X3370764Y4186527D1*
X3368350Y4179227D1*
Y4169513D1*
X3370764Y4162213D1*
X3375650Y4157327D1*
X3380479D1*
X3385364Y4159798D1*
X3387779Y4162213D1*
X3390194Y4167042D1*
X3395079Y4181642D1*
X3397493Y4186527D1*
X3399964Y4188942D1*
X3404793Y4191356D1*
X3412093D1*
X3416923Y4186527D1*
X3419393Y4179227D1*
Y4169512D1*
X3416923Y4162212D1*
X3412093Y4157327D1*
X3368350Y4230593D2*
X3419393D1*
X3368350Y4213579D2*
Y4247608D1*
X3380479Y4391536D2*
X3375650Y4389121D1*
X3370764Y4384236D1*
X3368350Y4379406D1*
Y4369692D1*
X3370764Y4364806D1*
X3375650Y4359977D1*
X3380479Y4357507D1*
X3387779Y4355092D1*
X3399964D1*
X3407208Y4357507D1*
X3412093Y4359977D1*
X3416923Y4364806D1*
X3419394Y4369692D1*
Y4379406D1*
X3416923Y4384236D1*
X3412094Y4389121D1*
X3407208Y4391536D1*
X3399964D1*
Y4379406D1*
X3368350Y4447787D2*
X3419393D1*
X3368350Y4413758D1*
X3419393D1*
X3368350Y4470009D2*
X3419393D1*
Y4487024D1*
X3416923Y4494324D1*
X3412093Y4499209D1*
X3407208Y4501624D1*
X3399964Y4504038D1*
X3387779D1*
X3380479Y4501624D1*
X3375650Y4499209D1*
X3370764Y4494324D1*
X3368350Y4487024D1*
Y4470009D1*
X3392664Y4609108D2*
Y4630952D1*
X3390194Y4638252D1*
X3387779Y4640722D1*
X3382950Y4643137D1*
X3378064D1*
X3373235Y4640722D1*
X3370764Y4638252D1*
X3368350Y4630952D1*
Y4609108D1*
X3419393D1*
X3392664Y4626122D2*
X3419394Y4643137D1*
X3419393Y4704274D2*
X3368350Y4684788D1*
X3419393Y4665359D1*
X3402379Y4672659D2*
Y4696974D1*
X3368350Y4726496D2*
X3419393Y4738681D1*
X3368350Y4750811D1*
X3419393Y4762940D1*
X3368350Y4775125D1*
X2596977Y4826911D2*
X2594562Y4831740D1*
X2589677Y4836625D1*
X2584848Y4839040D1*
X2575133D1*
X2570248Y4836625D1*
X2565418Y4831740D1*
X2562948Y4826911D1*
X2560533Y4819611D1*
Y4807425D1*
X2562948Y4800182D1*
X2565418Y4795296D1*
X2570248Y4790467D1*
X2575133Y4787996D1*
X2584848D1*
X2589677Y4790467D1*
X2594562Y4795296D1*
X2596977Y4800182D1*
Y4807425D1*
X2584848D1*
X2653228Y4839040D2*
Y4787996D1*
X2619199Y4839040D1*
Y4787996D1*
X2675451Y4839040D2*
Y4787996D1*
X2692465D1*
X2699765Y4790467D1*
X2704651Y4795296D1*
X2707065Y4800182D1*
X2709480Y4807425D1*
Y4819611D1*
X2707065Y4826911D1*
X2704651Y4831740D1*
X2699765Y4836625D1*
X2692465Y4839040D1*
X2675451D1*
X2154530Y4101076D2*
X2154531Y4122920D1*
X2152060Y4130220D1*
X2149645Y4132690D1*
X2144816Y4135105D1*
X2139931D1*
X2135101Y4132690D1*
X2132631Y4130220D1*
X2130216Y4122920D1*
Y4101076D1*
X2181260D1*
X2154531Y4118090D2*
X2181260Y4135105D1*
X2137516Y4191356D2*
X2132631Y4186527D1*
X2130216Y4179227D1*
Y4169513D1*
X2132631Y4162213D1*
X2137516Y4157327D1*
X2142345D1*
X2147231Y4159798D1*
X2149645Y4162213D1*
X2152060Y4167042D1*
X2156945Y4181642D1*
X2159360Y4186527D1*
X2161831Y4188942D1*
X2166660Y4191356D1*
X2173960D1*
X2178789Y4186527D1*
X2181260Y4179227D1*
Y4169512D1*
X2178789Y4162212D1*
X2173960Y4157327D1*
X2130216Y4230593D2*
X2181260D1*
X2130216Y4213579D2*
Y4247608D1*
X2318719Y4843072D2*
X2338148Y4792028D1*
X2357577Y4843072D1*
X2416243Y4830943D2*
X2413828Y4835772D1*
X2408943Y4840657D1*
X2404114Y4843072D1*
X2394399D1*
X2389514Y4840657D1*
X2384685Y4835772D1*
X2382214Y4830943D1*
X2379799Y4823643D1*
Y4811457D1*
X2382214Y4804214D1*
X2384685Y4799328D1*
X2389514Y4794499D1*
X2394399Y4792028D1*
X2404114D1*
X2408943Y4794499D1*
X2413828Y4799328D1*
X2416243Y4804214D1*
X2474909Y4830943D2*
X2472494Y4835772D1*
X2467609Y4840657D1*
X2462780Y4843072D1*
X2453065D1*
X2448180Y4840657D1*
X2443351Y4835772D1*
X2440880Y4830943D1*
X2438465Y4823643D1*
Y4811457D1*
X2440880Y4804214D1*
X2443351Y4799328D1*
X2448180Y4794499D1*
X2453065Y4792028D1*
X2462780D1*
X2467609Y4794499D1*
X2472494Y4799328D1*
X2474909Y4804214D1*
X2154530Y4370884D2*
X2154531Y4392728D1*
X2152060Y4400028D1*
X2149645Y4402498D1*
X2144816Y4404913D1*
X2139931D1*
X2135101Y4402498D1*
X2132631Y4400028D1*
X2130216Y4392728D1*
Y4370884D1*
X2181260D1*
X2154531Y4387898D2*
X2181260Y4404913D1*
X2130216Y4427135D2*
X2181260Y4461164D1*
X2130216D2*
X2181260Y4427135D1*
X2139987Y4483387D2*
X2137516Y4488272D1*
X2130272Y4495572D1*
X2181260D1*
X2130216Y4626122D2*
X2181260D1*
X2130216Y4609108D2*
Y4643137D1*
Y4665359D2*
X2181260Y4699388D1*
X2130216D2*
X2181260Y4665359D1*
X2130272Y4736211D2*
X2132687Y4728911D1*
X2139987Y4724025D1*
X2152116Y4721611D1*
X2159416D1*
X2171545Y4724025D1*
X2178845Y4728910D1*
X2181260Y4736210D1*
Y4741040D1*
X2178845Y4748340D1*
X2171545Y4753169D1*
X2159416Y4755640D1*
X2152116D1*
X2139987Y4753169D1*
X2132687Y4748340D1*
X2130272Y4741040D1*
Y4736211D1*
X2139987Y4753169D2*
X2171545Y4724025D1*
X2842530Y4818757D2*
X2864374D1*
X2871674Y4821228D1*
X2874145Y4823643D1*
X2876560Y4828472D1*
Y4833357D1*
X2874145Y4838187D1*
X2871674Y4840657D1*
X2864374Y4843072D1*
X2842530D1*
Y4792028D1*
X2859545Y4818757D2*
X2876560Y4792028D1*
X2898782Y4843072D2*
X2932811Y4792028D1*
Y4843072D2*
X2898782Y4792028D1*
X2955033Y4833301D2*
X2959919Y4835772D1*
X2967219Y4843016D1*
Y4792028D1*
X3118402Y4837696D2*
Y4786652D1*
X3101387Y4837696D2*
X3135416D1*
X3157638D2*
X3191668Y4786652D1*
Y4837696D2*
X3157638Y4786652D1*
X3228490Y4837640D2*
X3221190Y4835225D1*
X3216304Y4827925D1*
X3213890Y4815796D1*
Y4808496D1*
X3216304Y4796367D1*
X3221190Y4789067D1*
X3228490Y4786652D1*
X3233319D1*
X3240619Y4789067D1*
X3245448Y4796367D1*
X3247919Y4808496D1*
Y4815796D1*
X3245448Y4827925D1*
X3240619Y4835225D1*
X3233319Y4837640D1*
X3228490D1*
X3245448Y4827925D2*
X3216304Y4796367D1*
X3495356Y4863124D2*
X3546400D1*
Y4880138D1*
X3543929Y4887438D1*
X3539100Y4892324D1*
X3534215Y4894738D1*
X3526971Y4897153D1*
X3514785D1*
X3507485Y4894738D1*
X3502656Y4892324D1*
X3497771Y4887438D1*
X3495356Y4880138D1*
Y4863124D1*
Y4936390D2*
X3546400D1*
X3495356Y4919375D2*
Y4953404D1*
X3519671Y4975627D2*
Y4997470D1*
X3517200Y5004770D1*
X3514785Y5007241D1*
X3509956Y5009656D1*
X3505071D1*
X3500241Y5007241D1*
X3497771Y5004770D1*
X3495356Y4997470D1*
Y4975627D1*
X3546400Y4975626D1*
X3519671Y4992641D2*
X3546400Y5009656D1*
X2147231Y1910050D2*
X2154531Y1907580D1*
X2159416Y1902750D1*
X2161831Y1895450D1*
Y1893036D1*
X2159416Y1885736D1*
X2154530Y1880907D1*
X2147230Y1878436D1*
X2144816D1*
X2137516Y1880907D1*
X2132687Y1885736D1*
X2130272Y1893036D1*
Y1895450D1*
X2132687Y1902750D1*
X2137516Y1907580D1*
X2147231Y1910050D1*
X2159416D1*
X2171545Y1907580D1*
X2178845Y1902750D1*
X2181260Y1895450D1*
Y1890621D1*
X2178845Y1883321D1*
X2173960Y1880907D1*
X2130272Y2128789D2*
X2132687Y2121545D1*
X2137516Y2119075D1*
X2142401D1*
X2147230Y2121545D1*
X2149701Y2126374D1*
X2152116Y2136089D1*
X2154531Y2143389D1*
X2159416Y2148218D1*
X2164245Y2150633D1*
X2171545D1*
X2176374Y2148218D1*
X2178845Y2145804D1*
X2181260Y2138504D1*
Y2128789D1*
X2178845Y2121545D1*
X2176374Y2119075D1*
X2171545Y2116660D1*
X2164245D1*
X2159416Y2119075D1*
X2154531Y2123960D1*
X2152116Y2131204D1*
X2149701Y2140918D1*
X2147231Y2145804D1*
X2142401Y2148218D1*
X2137516D1*
X2132687Y2145804D1*
X2130272Y2138504D1*
Y2128789D1*
X2181260Y2396518D2*
X2130272Y2420833D1*
Y2386804D1*
X2137516Y2669964D2*
X2132687Y2667549D1*
X2130272Y2660249D1*
Y2655420D1*
X2132687Y2648120D1*
X2139987Y2643235D1*
X2152116Y2640820D1*
X2164245D1*
X2173960Y2643235D1*
X2178845Y2648120D1*
X2181260Y2655420D1*
Y2657834D1*
X2178845Y2665078D1*
X2173960Y2669964D1*
X2166660Y2672378D1*
X2164245D1*
X2156945Y2669964D1*
X2152116Y2665078D1*
X2149701Y2657834D1*
Y2655420D1*
X2152116Y2648120D1*
X2156945Y2643235D1*
X2164245Y2640820D1*
X2130272Y2907852D2*
Y2883593D1*
X2152116Y2881179D1*
X2149701Y2883593D1*
X2147231Y2890893D1*
Y2898137D1*
X2149701Y2905437D1*
X2154531Y2910322D1*
X2161831Y2912737D1*
X2166660D1*
X2173960Y2910322D1*
X2178845Y2905437D1*
X2181260Y2898137D1*
Y2890893D1*
X2178845Y2883593D1*
X2176374Y2881179D1*
X2171545Y2878708D1*
X2181260Y3157374D2*
X2130272D1*
X2164245Y3133060D1*
Y3169504D1*
X2130272Y3376169D2*
Y3402842D1*
X2149701Y3388298D1*
Y3395598D1*
X2152116Y3400428D1*
X2154531Y3402842D1*
X2161831Y3405313D1*
X2166660D1*
X2173960Y3402842D1*
X2178845Y3398013D1*
X2181260Y3390713D1*
Y3383413D1*
X2178845Y3376169D1*
X2176374Y3373755D1*
X2171545Y3371284D1*
X2142401Y3627771D2*
X2139987D1*
X2135101Y3630185D1*
X2132687Y3632600D1*
X2130272Y3637485D1*
Y3647200D1*
X2132687Y3652029D1*
X2135101Y3654444D1*
X2139987Y3656914D1*
X2144816D1*
X2149701Y3654444D1*
X2156945Y3649614D1*
X2181260Y3625300D1*
Y3659329D1*
X2142345Y3868048D2*
X2137516Y3865633D1*
X2132631Y3860748D1*
X2130216Y3855918D1*
Y3846204D1*
X2132631Y3841318D1*
X2137516Y3836489D1*
X2142345Y3834019D1*
X2149645Y3831604D1*
X2161830D1*
X2169074Y3834019D1*
X2173960Y3836489D1*
X2178789Y3841318D1*
X2181260Y3846204D1*
Y3855918D1*
X2178789Y3860748D1*
X2173960Y3865633D1*
X2169074Y3868048D1*
X2161831D1*
Y3855918D1*
X2130216Y3924299D2*
X2181260D1*
X2130216Y3890270D1*
X2181260D1*
X2130216Y3946521D2*
X2181260D1*
Y3963536D1*
X2178789Y3970836D1*
X2173960Y3975721D1*
X2169074Y3978136D1*
X2161831Y3980550D1*
X2149645D1*
X2142345Y3978136D1*
X2137516Y3975721D1*
X2132631Y3970836D1*
X2130216Y3963536D1*
Y3946521D1*
X2897411Y2013644D2*
X2877925Y2064688D1*
X2858496Y2013644D1*
X2865796Y2030659D2*
X2890111D1*
X2948777Y2057388D2*
X2946362Y2062217D1*
X2939062Y2064632D1*
X2934233D1*
X2926933Y2062217D1*
X2922047Y2054917D1*
X2919633Y2042788D1*
Y2030659D1*
X2922047Y2020944D1*
X2926933Y2016059D1*
X2934233Y2013644D1*
X2936647D1*
X2943891Y2016059D1*
X2948777Y2020944D1*
X2951191Y2028244D1*
Y2030659D1*
X2948777Y2037959D1*
X2943891Y2042788D1*
X2936647Y2045203D1*
X2934233D1*
X2926933Y2042788D1*
X2922047Y2037959D1*
X2919633Y2030659D1*
X3165954Y2014652D2*
X3146469Y2065696D1*
X3127039Y2014652D1*
X3134339Y2031667D2*
X3158654D1*
X3197891Y2014652D2*
X3222205Y2065640D1*
X3188176D1*
X2389385Y2013644D2*
X2369899Y2064688D1*
X2350470Y2013644D1*
X2357770Y2030659D2*
X2382085D1*
X2435922Y2013644D2*
Y2064632D1*
X2411607Y2030659D1*
X2448051D1*
X2658107Y2014652D2*
X2638622Y2065696D1*
X2619193Y2014652D1*
X2626493Y2031667D2*
X2650807D1*
X2709474Y2065640D2*
X2685215D1*
X2682800Y2043796D1*
X2685215Y2046211D1*
X2692515Y2048681D1*
X2699759D1*
X2707059Y2046211D1*
X2711944Y2041381D1*
X2714359Y2034081D1*
Y2029252D1*
X2711944Y2021952D1*
X2707059Y2017067D1*
X2699759Y2014652D1*
X2692515D1*
X2685215Y2017067D1*
X2682800Y2019538D1*
X2680330Y2024367D1*
M02*
